<svg width="240" height="102" viewBox="0 0 240 102" fill="none" xmlns="http://www.w3.org/2000/svg">
<path d="M58.418 37.1836L59.3555 34.1367C59.3945 34.0977 59.6875 34.0586 60.2344 34.0195C60.8203 33.9414 61.582 33.8633 62.5195 33.7852C63.457 33.668 64.5117 33.5508 65.6836 33.4336C66.8555 33.3164 68.0469 33.1992 69.2578 33.082C70.5078 32.9648 71.7188 32.8477 72.8906 32.7305C74.1016 32.6133 75.2148 32.4961 76.2305 32.3789C76.2305 32.3789 76.4062 32.3789 76.7578 32.3789C77.1094 32.3789 77.5 32.3789 77.9297 32.3789C78.3594 32.3789 78.7695 32.3789 79.1602 32.3789C79.5508 32.3789 79.8047 32.3789 79.9219 32.3789C80.8594 32.3789 81.5039 32.5547 81.8555 32.9062C82.207 33.2578 82.3828 34.0195 82.3828 35.1914L71.7188 36.4219C71.6406 38.8828 71.6797 41.4609 71.8359 44.1562C71.9922 46.8516 72.1875 49.5859 72.4219 52.3594C72.6562 55.0938 72.8711 57.8086 73.0664 60.5039C73.3008 63.1992 73.418 65.7773 73.418 68.2383C73.418 68.5898 73.3008 68.8438 73.0664 69C72.8711 69.1172 72.6172 69.1953 72.3047 69.2344C72.0312 69.2734 71.7383 69.2539 71.4258 69.1758C71.1133 69.1367 70.8398 69.0781 70.6055 69C70.4883 68.4922 70.3711 67.6133 70.2539 66.3633C70.1367 65.1133 70.0195 63.6484 69.9023 61.9688C69.7852 60.2891 69.668 58.4727 69.5508 56.5195C69.4336 54.5664 69.3164 52.6133 69.1992 50.6602C69.082 48.707 68.9648 46.8516 68.8477 45.0938C68.7305 43.2969 68.6328 41.7344 68.5547 40.4062C68.4766 39.0391 68.3984 37.9844 68.3203 37.2422C68.2812 36.5 68.2422 36.2266 68.2031 36.4219L58.418 37.1836ZM82.1484 58.2773C82.1484 57.3789 82.2266 56.3438 82.3828 55.1719C82.5391 53.9609 82.793 52.75 83.1445 51.5391C83.4961 50.3281 83.9258 49.1367 84.4336 47.9648C84.9805 46.793 85.625 45.7578 86.3672 44.8594C87.1094 43.9219 87.9688 43.1797 88.9453 42.6328C89.9219 42.0469 91.0156 41.7539 92.2266 41.7539C93.4766 41.7539 94.6289 42.1836 95.6836 43.043C96.7773 43.9023 97.6953 45.0156 98.4375 46.3828C99.2188 47.75 99.8047 49.2734 100.195 50.9531C100.586 52.6328 100.742 54.2734 100.664 55.875C100.664 58.2188 100.215 60.3086 99.3164 62.1445C98.418 63.9805 97.2656 65.4648 95.8594 66.5977C94.4922 67.7305 93.0078 68.4922 91.4062 68.8828C89.8438 69.2734 88.3594 69.1758 86.9531 68.5898C85.5859 67.9648 84.4336 66.8125 83.4961 65.1328C82.5977 63.4531 82.1484 61.168 82.1484 58.2773ZM84.3164 58.5117C84.4336 60.8945 84.8438 62.7305 85.5469 64.0195C86.25 65.3086 87.0898 66.168 88.0664 66.5977C89.082 66.9883 90.1758 66.9883 91.3477 66.5977C92.5195 66.207 93.6133 65.5234 94.6289 64.5469C95.6445 63.5312 96.5039 62.2812 97.207 60.7969C97.9492 59.2734 98.3594 57.5742 98.4375 55.6992C98.5156 54.293 98.3984 52.9258 98.0859 51.5977C97.8125 50.2695 97.4023 49.0977 96.8555 48.082C96.3477 47.0273 95.7031 46.207 94.9219 45.6211C94.1797 44.9961 93.3203 44.6836 92.3438 44.6836C91.4062 44.6836 90.5664 44.918 89.8242 45.3867C89.082 45.8555 88.3984 46.5 87.7734 47.3203C87.1875 48.1016 86.6797 49 86.25 50.0156C85.8203 51.0312 85.4492 52.0469 85.1367 53.0625C84.8633 54.0781 84.6484 55.0742 84.4922 56.0508C84.375 56.9883 84.3164 57.8086 84.3164 58.5117Z" fill="#393E46"/>
<path d="M104.707 39.7617C104.629 39.6836 104.531 39.5469 104.414 39.3516C104.297 39.1562 104.18 38.9414 104.062 38.707C103.945 38.4336 103.828 38.1992 103.711 38.0039C103.633 37.7695 103.594 37.5938 103.594 37.4766C103.594 37.125 103.75 36.8516 104.062 36.6562C104.375 36.4609 104.727 36.3438 105.117 36.3047C105.508 36.2656 105.879 36.2461 106.23 36.2461C106.621 36.2461 106.855 36.2461 106.934 36.2461C107.051 36.2461 107.207 36.2656 107.402 36.3047C107.637 36.3047 107.871 36.3242 108.105 36.3633C108.379 36.3633 108.613 36.3828 108.809 36.4219C109.004 36.4219 109.141 36.4219 109.219 36.4219C110.508 36.8906 111.973 37.4375 113.613 38.0625C115.293 38.6875 117.012 39.4102 118.77 40.2305C120.527 41.0508 122.246 41.9883 123.926 43.043C125.605 44.0586 127.109 45.2305 128.438 46.5586C129.766 47.8477 130.84 49.2734 131.66 50.8359C132.48 52.3984 132.891 54.1367 132.891 56.0508C132.891 57.6914 132.578 59.1758 131.953 60.5039C131.328 61.793 130.488 62.9258 129.434 63.9023C128.418 64.8398 127.227 65.6602 125.859 66.3633C124.492 67.0273 123.086 67.5742 121.641 68.0039C120.234 68.3945 118.809 68.6875 117.363 68.8828C115.918 69.0781 114.57 69.1758 113.32 69.1758C113.047 69.1758 112.578 69.1562 111.914 69.1172C111.25 69.1172 110.566 69.0977 109.863 69.0586C109.16 69.0195 108.516 69 107.93 69C107.383 68.9609 107.09 68.9414 107.051 68.9414L106.934 66.7734L104.707 39.7617ZM108.047 39.4688C108.047 39.5469 108.047 39.7031 108.047 39.9375C108.047 40.1719 108.047 40.4453 108.047 40.7578C108.086 41.0312 108.105 41.2852 108.105 41.5195C108.105 41.7539 108.105 41.9297 108.105 42.0469C108.145 42.6328 108.184 43.5703 108.223 44.8594C108.301 46.1484 108.359 47.6133 108.398 49.2539C108.477 50.8945 108.555 52.6133 108.633 54.4102C108.75 56.168 108.848 57.8672 108.926 59.5078C109.004 61.1094 109.062 62.5742 109.102 63.9023C109.18 65.1914 109.219 66.1484 109.219 66.7734C109.453 66.7734 109.824 66.793 110.332 66.832C110.879 66.832 111.445 66.8516 112.031 66.8906C112.617 66.8906 113.164 66.9102 113.672 66.9492C114.219 66.9492 114.609 66.9492 114.844 66.9492C116.641 66.9492 118.418 66.7344 120.176 66.3047C121.934 65.8359 123.496 65.1523 124.863 64.2539C126.27 63.3164 127.402 62.125 128.262 60.6797C129.16 59.1953 129.609 57.418 129.609 55.3477C129.609 53.8242 129.258 52.3789 128.555 51.0117C127.852 49.6055 126.914 48.3164 125.742 47.1445C124.609 45.9727 123.301 44.918 121.816 43.9805C120.332 43.043 118.789 42.2422 117.188 41.5781C115.625 40.875 114.043 40.3477 112.441 39.9961C110.879 39.6445 109.414 39.4688 108.047 39.4688ZM135.41 58.2773C135.41 57.3789 135.488 56.3438 135.645 55.1719C135.801 53.9609 136.055 52.75 136.406 51.5391C136.758 50.3281 137.188 49.1367 137.695 47.9648C138.242 46.793 138.887 45.7578 139.629 44.8594C140.371 43.9219 141.23 43.1797 142.207 42.6328C143.184 42.0469 144.277 41.7539 145.488 41.7539C146.738 41.7539 147.891 42.1836 148.945 43.043C150.039 43.9023 150.957 45.0156 151.699 46.3828C152.48 47.75 153.066 49.2734 153.457 50.9531C153.848 52.6328 154.004 54.2734 153.926 55.875C153.926 58.2188 153.477 60.3086 152.578 62.1445C151.68 63.9805 150.527 65.4648 149.121 66.5977C147.754 67.7305 146.27 68.4922 144.668 68.8828C143.105 69.2734 141.621 69.1758 140.215 68.5898C138.848 67.9648 137.695 66.8125 136.758 65.1328C135.859 63.4531 135.41 61.168 135.41 58.2773ZM137.578 58.5117C137.695 60.8945 138.105 62.7305 138.809 64.0195C139.512 65.3086 140.352 66.168 141.328 66.5977C142.344 66.9883 143.438 66.9883 144.609 66.5977C145.781 66.207 146.875 65.5234 147.891 64.5469C148.906 63.5312 149.766 62.2812 150.469 60.7969C151.211 59.2734 151.621 57.5742 151.699 55.6992C151.777 54.293 151.66 52.9258 151.348 51.5977C151.074 50.2695 150.664 49.0977 150.117 48.082C149.609 47.0273 148.965 46.207 148.184 45.6211C147.441 44.9961 146.582 44.6836 145.605 44.6836C144.668 44.6836 143.828 44.918 143.086 45.3867C142.344 45.8555 141.66 46.5 141.035 47.3203C140.449 48.1016 139.941 49 139.512 50.0156C139.082 51.0312 138.711 52.0469 138.398 53.0625C138.125 54.0781 137.91 55.0742 137.754 56.0508C137.637 56.9883 137.578 57.8086 137.578 58.5117ZM157.617 66.7734C157.461 66.1875 157.461 65.7383 157.617 65.4258C157.812 65.0742 158.066 64.8203 158.379 64.6641C158.691 64.5078 159.043 64.4297 159.434 64.4297C159.824 64.3906 160.176 64.3711 160.488 64.3711C160.762 64.3711 161.094 64.3906 161.484 64.4297C161.875 64.4297 162.227 64.5078 162.539 64.6641C162.852 64.8203 163.086 65.0742 163.242 65.4258C163.398 65.7383 163.398 66.1875 163.242 66.7734C163.203 67.0469 163.086 67.3203 162.891 67.5938C162.695 67.8281 162.461 68.0625 162.188 68.2969C161.953 68.5312 161.68 68.7266 161.367 68.8828C161.055 69.0391 160.762 69.1172 160.488 69.1172C160.176 69.1172 159.863 69.0391 159.551 68.8828C159.238 68.7266 158.945 68.5312 158.672 68.2969C158.398 68.0625 158.164 67.8281 157.969 67.5938C157.812 67.3203 157.695 67.0469 157.617 66.7734ZM166.289 66.7734C166.133 66.1875 166.133 65.7383 166.289 65.4258C166.484 65.0742 166.738 64.8203 167.051 64.6641C167.363 64.5078 167.715 64.4297 168.105 64.4297C168.496 64.3906 168.848 64.3711 169.16 64.3711C169.434 64.3711 169.766 64.3906 170.156 64.4297C170.547 64.4297 170.898 64.5078 171.211 64.6641C171.523 64.8203 171.758 65.0742 171.914 65.4258C172.07 65.7383 172.07 66.1875 171.914 66.7734C171.875 67.0469 171.758 67.3203 171.562 67.5938C171.367 67.8281 171.133 68.0625 170.859 68.2969C170.625 68.5312 170.352 68.7266 170.039 68.8828C169.727 69.0391 169.434 69.1172 169.16 69.1172C168.848 69.1172 168.535 69.0391 168.223 68.8828C167.91 68.7266 167.617 68.5312 167.344 68.2969C167.07 68.0625 166.836 67.8281 166.641 67.5938C166.484 67.3203 166.367 67.0469 166.289 66.7734ZM174.961 66.7734C174.805 66.1875 174.805 65.7383 174.961 65.4258C175.156 65.0742 175.41 64.8203 175.723 64.6641C176.035 64.5078 176.387 64.4297 176.777 64.4297C177.168 64.3906 177.52 64.3711 177.832 64.3711C178.105 64.3711 178.438 64.3906 178.828 64.4297C179.219 64.4297 179.57 64.5078 179.883 64.6641C180.195 64.8203 180.43 65.0742 180.586 65.4258C180.742 65.7383 180.742 66.1875 180.586 66.7734C180.547 67.0469 180.43 67.3203 180.234 67.5938C180.039 67.8281 179.805 68.0625 179.531 68.2969C179.297 68.5312 179.023 68.7266 178.711 68.8828C178.398 69.0391 178.105 69.1172 177.832 69.1172C177.52 69.1172 177.207 69.0391 176.895 68.8828C176.582 68.7266 176.289 68.5312 176.016 68.2969C175.742 68.0625 175.508 67.8281 175.312 67.5938C175.156 67.3203 175.039 67.0469 174.961 66.7734Z" fill="#00ADB5"/>
</svg>
