<svg width="1440" height="1024" viewBox="0 0 1440 1024" fill="none" xmlns="http://www.w3.org/2000/svg">
<path fill-rule="evenodd" clip-rule="evenodd" d="M0 0H1440V1024H1204.7V920.758L1250.27 875.148H1284.03L1298.7 889.836H1320.54L1332.37 901.673C1331.98 902.243 1331.74 902.94 1331.74 903.688C1331.74 905.652 1333.32 907.236 1335.28 907.236C1337.24 907.236 1338.83 905.652 1338.83 903.688C1338.83 901.723 1337.24 900.139 1335.28 900.139C1334.53 900.139 1333.84 900.38 1333.27 900.773L1321.06 888.556H1299.22L1285.81 875.135H1333.53L1344.3 885.907H1371.19L1377.74 892.459C1377.33 893.03 1377.1 893.739 1377.1 894.487C1377.1 896.464 1378.7 898.061 1380.67 898.061C1382.65 898.061 1384.24 896.464 1384.24 894.487C1384.24 892.51 1382.65 890.913 1380.67 890.913C1379.91 890.913 1379.22 891.154 1378.65 891.56L1371.73 884.64H1344.84L1334.71 874.502L1338.43 870.776H1376.82L1388.57 882.536H1409.33C1409.63 884.197 1411.06 885.451 1412.81 885.451C1414.77 885.451 1416.35 883.867 1416.35 881.903C1416.35 879.938 1414.77 878.354 1412.81 878.354L1412.8 878.38C1411.06 878.38 1409.62 879.634 1409.31 881.294H1389.09L1377.98 870.167L1382.78 865.364C1383.47 865.884 1384.32 866.188 1385.26 866.188C1387.57 866.188 1389.46 864.3 1389.46 861.981C1389.46 859.661 1387.57 857.773 1385.26 857.773C1382.94 857.773 1381.05 859.661 1381.05 861.981C1381.05 862.906 1381.37 863.767 1381.88 864.464L1376.81 869.534H1337.9L1333.55 873.893H1308.22L1316.23 865.884C1316.8 866.277 1317.49 866.518 1318.24 866.518C1320.2 866.518 1321.78 864.933 1321.78 862.969C1321.78 861.005 1320.2 859.421 1318.24 859.421C1316.28 859.421 1314.69 861.005 1314.69 862.969C1314.69 863.717 1314.93 864.414 1315.33 864.984L1306.43 873.893H1249.74L1203.44 920.239V1024H1202.66V919.111L1263.86 857.862H1309.14V857.836L1325.7 841.26L1337.57 853.147H1362.43C1362.73 854.82 1364.18 856.088 1365.94 856.088C1367.9 856.088 1369.51 854.491 1369.51 852.514C1369.51 850.537 1367.91 848.94 1365.94 848.94C1364.19 848.94 1362.73 850.207 1362.43 851.88H1338.09L1327.23 841.007H1393.32L1403.78 851.475C1403.39 852.045 1403.15 852.742 1403.15 853.49C1403.15 855.454 1404.73 857.038 1406.69 857.038C1408.66 857.038 1410.24 855.454 1410.24 853.49C1410.24 851.525 1408.66 849.941 1406.69 849.941C1405.95 849.941 1405.25 850.182 1404.68 850.575L1394.49 840.373L1405.98 828.866C1406.68 829.385 1407.53 829.689 1408.47 829.689C1410.78 829.689 1412.67 827.801 1412.67 825.482C1412.67 823.163 1410.78 821.275 1408.47 821.275C1406.15 821.275 1404.26 823.163 1404.26 825.482C1404.26 826.407 1404.58 827.269 1405.08 827.966L1393.32 839.739H1325.44L1308.62 856.582H1263.34L1201.4 918.579V1024H1200.61V917.387L1278.81 839.118H1305.13V839.131L1326.55 817.701H1360.21L1370.99 828.486C1370.59 829.056 1370.35 829.753 1370.35 830.501C1370.35 832.465 1371.94 834.049 1373.9 834.049C1375.86 834.049 1377.44 832.465 1377.44 830.501C1377.44 828.536 1375.86 826.952 1373.9 826.952C1373.15 826.952 1372.46 827.193 1371.89 827.586L1362.01 817.701H1398.48L1409.8 806.371C1410.36 806.764 1411.06 807.005 1411.81 807.005C1413.77 807.005 1415.35 805.42 1415.35 803.456C1415.35 801.492 1413.77 799.908 1411.81 799.908C1409.85 799.908 1408.26 801.492 1408.26 803.456C1408.26 804.204 1408.5 804.901 1408.9 805.471L1397.94 816.433H1344.46L1353.59 807.296H1381.48C1381.79 808.956 1383.22 810.211 1384.97 810.211C1386.93 810.211 1388.51 808.627 1388.51 806.662C1388.51 804.698 1386.93 803.114 1384.97 803.114C1383.23 803.114 1381.79 804.369 1381.48 806.029H1353.07L1342.68 816.433H1326.01L1304.6 837.864H1278.28L1199.35 916.868V1024H1198.59V915.689L1292.59 821.604H1307.64L1333.59 795.637H1384.16L1413.4 766.362C1413.99 766.768 1414.68 766.996 1415.43 766.996C1417.39 766.996 1419 765.399 1419 763.422C1419 761.445 1417.4 759.848 1415.43 759.848V759.886C1413.45 759.886 1411.86 761.483 1411.86 763.46C1411.86 764.22 1412.1 764.917 1412.5 765.488L1399.63 778.376V759.734C1401.29 759.43 1402.54 757.998 1402.54 756.249C1402.54 754.284 1400.96 752.7 1398.99 752.7C1397.03 752.7 1395.45 754.284 1395.45 756.249C1395.45 757.998 1396.7 759.43 1398.36 759.734V779.643L1383.62 794.395H1355.43L1370.9 778.908V766.945C1372.56 766.641 1373.81 765.209 1373.81 763.46C1373.81 761.495 1372.23 759.911 1370.27 759.911C1368.3 759.911 1366.72 761.495 1366.72 763.46C1366.72 765.209 1367.97 766.641 1369.63 766.945V778.389L1353.64 794.395H1333.95V780.961L1369.76 745.122H1395.7L1410.19 730.624C1410.76 731.017 1411.45 731.257 1412.2 731.257C1414.16 731.257 1415.75 729.673 1415.75 727.709C1415.75 725.745 1414.16 724.161 1412.2 724.161C1410.24 724.161 1408.66 725.745 1408.66 727.709C1408.66 728.457 1408.9 729.154 1409.29 729.724L1395.17 743.855H1371.01L1383.8 731.055C1384.6 731.562 1385.47 731.828 1386.33 731.828C1387.94 731.828 1389.38 730.928 1390.09 729.483C1390.84 727.962 1390.6 726.15 1389.45 724.617L1389.33 724.49C1388.41 723.78 1387.37 723.4 1386.33 723.4C1384.73 723.4 1383.28 724.3 1382.57 725.745C1381.89 727.113 1382.03 728.723 1382.91 730.142L1332.69 780.416V794.75L1308.01 819.45V800.199L1322.87 785.321V776.691C1324.54 776.386 1325.81 774.942 1325.81 773.18C1325.81 771.203 1324.22 769.606 1322.24 769.606C1320.27 769.606 1318.67 771.203 1318.67 773.18C1318.67 774.929 1319.94 776.386 1321.61 776.691V784.801L1306.74 799.68V820.349H1292.06L1197.32 915.17V1024H1196.51V914.029L1283.29 827.168V804.508L1283.32 804.495L1321.24 766.539L1341.14 746.617C1341.73 747.023 1342.42 747.251 1343.17 747.251C1345.13 747.251 1346.74 745.654 1346.74 743.677C1346.74 741.7 1345.15 740.103 1343.17 740.103C1341.19 740.103 1339.6 741.7 1339.6 743.677C1339.6 744.438 1339.84 745.135 1340.23 745.705L1321.4 764.55V737.265L1333.55 725.111H1365.78L1369.49 721.398C1370.06 721.791 1370.76 722.031 1371.51 722.031C1373.47 722.031 1375.05 720.447 1375.05 718.483C1375.05 716.519 1373.47 714.935 1371.51 714.935C1369.54 714.935 1367.96 716.519 1367.96 718.483C1367.96 719.231 1368.2 719.928 1368.59 720.498L1365.25 723.844H1334.81L1357.41 701.222H1375.28L1383.66 692.833C1384.23 693.225 1384.93 693.466 1385.67 693.466C1387.64 693.466 1389.22 691.882 1389.22 689.918C1389.22 687.953 1387.64 686.369 1385.67 686.369C1383.71 686.369 1382.13 687.953 1382.13 689.918C1382.13 690.666 1382.37 691.362 1382.76 691.933L1374.75 699.955H1358.68L1382.1 676.51C1382.69 676.915 1383.38 677.156 1384.13 677.156C1386.11 677.156 1387.7 675.559 1387.7 673.582C1387.7 671.605 1386.11 670.008 1384.13 670.008C1382.15 670.008 1380.56 671.605 1380.56 673.582C1380.56 674.343 1380.8 675.04 1381.21 675.61L1356.9 699.942L1342.73 714.136V699.968C1344.39 699.663 1345.64 698.231 1345.64 696.482C1345.64 694.518 1344.06 692.934 1342.09 692.934C1340.13 692.934 1338.55 694.518 1338.55 696.482C1338.55 698.231 1339.8 699.663 1341.46 699.968V715.403L1320.15 736.732V749.114L1308.83 737.784C1309.24 737.201 1309.46 736.504 1309.46 735.756C1309.46 733.779 1307.87 732.183 1305.89 732.183C1303.92 732.183 1302.32 733.779 1302.32 735.756C1302.32 737.733 1303.92 739.33 1305.89 739.33C1306.65 739.33 1307.35 739.089 1307.92 738.697L1320.14 750.926V765.83L1282.03 803.976V826.635L1195.24 913.497V1024H1189.48V915.436L1262.73 842.122V810.021L1294.63 778.097V731.055L1359.72 665.902L1359.77 665.852L1359.91 665.712L1370.47 655.143C1371.16 655.65 1372.01 655.966 1372.94 655.966C1375.24 655.966 1377.12 654.091 1377.12 651.784C1377.12 649.478 1375.24 647.602 1372.94 647.602C1370.63 647.602 1368.76 649.478 1368.76 651.784C1368.76 652.71 1369.08 653.559 1369.58 654.243L1359.92 663.913V630.671C1361.59 630.367 1362.86 628.922 1362.86 627.161C1362.86 625.184 1361.26 623.587 1359.29 623.587C1357.31 623.587 1355.72 625.184 1355.72 627.161C1355.72 628.909 1356.98 630.367 1358.66 630.671V665.18L1341.45 682.403V656.157C1343.11 655.852 1344.36 654.42 1344.36 652.672C1344.36 650.707 1342.78 649.123 1340.81 649.123C1338.85 649.123 1337.27 650.707 1337.27 652.672C1337.27 654.42 1338.52 655.852 1340.18 656.157V683.67L1326.38 697.484L1315.9 686.99V659.084C1317.56 658.78 1318.81 657.348 1318.81 655.599C1318.81 653.635 1317.23 652.051 1315.26 652.051C1313.3 652.051 1311.72 653.635 1311.72 655.599C1311.72 657.348 1312.97 658.78 1314.63 659.084V687.523L1325.48 698.383L1294.64 729.255V713.54L1305.89 702.274V603.272L1312.36 596.796C1312.95 597.201 1313.64 597.429 1314.39 597.429C1316.35 597.429 1317.96 595.833 1317.96 593.856C1317.96 591.879 1316.37 590.282 1314.39 590.282C1312.41 590.282 1310.82 591.879 1310.82 593.856C1310.82 594.616 1311.06 595.313 1311.47 595.883L1304.63 602.727V701.729L1293.37 712.996V760.165L1282.98 749.76V726.568C1284.99 726.264 1286.55 724.528 1286.55 722.424C1286.55 720.105 1284.66 718.217 1282.34 718.217C1280.03 718.217 1278.14 720.105 1278.14 722.424C1278.14 724.528 1279.7 726.252 1281.71 726.568V750.28L1293.37 761.952V777.54L1261.46 809.476V841.602L1188.22 914.916V1024H1187.39V913.788L1238.26 862.893V844.834L1238.29 844.821L1255.55 827.548V799.375L1274 780.911V698.637L1289.45 683.176V657.462L1297.96 648.946V578.724C1299.63 578.42 1300.89 576.975 1300.89 575.213C1300.89 573.236 1299.3 571.64 1297.32 571.64C1295.35 571.64 1293.75 573.236 1293.75 575.213C1293.75 576.962 1295.02 578.42 1296.69 578.724V621.369L1275.7 600.357C1276.09 599.787 1276.33 599.09 1276.33 598.342C1276.33 596.378 1274.75 594.793 1272.78 594.793C1270.82 594.793 1269.24 596.378 1269.24 598.342C1269.24 600.306 1270.82 601.89 1272.78 601.89C1273.53 601.89 1274.23 601.65 1274.8 601.257L1296.68 623.156V648.413L1288.8 656.296L1271.23 638.706C1271.63 638.123 1271.86 637.426 1271.86 636.678C1271.86 634.701 1270.26 633.104 1268.29 633.104C1266.31 633.104 1264.72 634.701 1264.72 636.678C1264.72 638.655 1266.31 640.252 1268.29 640.252C1269.05 640.252 1269.75 640.011 1270.32 639.606L1288.14 657.449V682.643L1273.33 697.471L1263.88 688.017V669.704C1265.55 669.4 1266.82 667.955 1266.82 666.194C1266.82 664.217 1265.23 662.62 1263.25 662.62C1261.27 662.62 1259.68 664.217 1259.68 666.194C1259.68 667.943 1260.95 669.4 1262.62 669.704V688.549L1272.7 698.637V780.391L1254.25 798.856V827.028L1236.99 844.302V862.361L1186.13 913.256V1024H1185.41V912.09L1223.66 873.805V826.901V826.889L1242.21 808.323V773.459L1252.07 763.587V751.18C1253.74 750.875 1255.01 749.431 1255.01 747.669C1255.01 745.692 1253.41 744.095 1251.44 744.095C1249.46 744.095 1247.87 745.692 1247.87 747.669C1247.87 749.418 1249.13 750.875 1250.8 751.18V763.054L1242.21 771.659V743.753L1258.6 727.341V712.565C1260.27 712.26 1261.54 710.816 1261.54 709.054C1261.54 707.077 1259.95 705.48 1257.97 705.48C1256 705.48 1254.4 707.077 1254.4 709.054C1254.4 710.803 1255.67 712.26 1257.34 712.565V725.555L1247.17 715.378V696.14C1248.84 695.836 1250.11 694.391 1250.11 692.63C1250.11 690.653 1248.51 689.056 1246.54 689.056C1244.56 689.056 1242.97 690.653 1242.97 692.63C1242.97 694.379 1244.23 695.836 1245.9 696.14V715.91L1257.07 727.088L1240.94 743.234V807.803L1222.39 826.369V873.272L1184.14 911.558V1024H1183.36V910.404L1196.97 896.781V868.621L1212.27 853.299V795.89L1227.09 781.063V723.489L1236.53 714.035V690.083L1254.2 672.404V597.683L1266.42 585.466C1266.99 585.859 1267.68 586.1 1268.43 586.1C1270.39 586.1 1271.97 584.516 1271.97 582.551C1271.97 580.587 1270.39 579.003 1268.43 579.003C1266.47 579.003 1264.88 580.587 1264.88 582.551C1264.88 583.299 1265.12 583.996 1265.52 584.566L1252.93 597.163V630.785L1236.95 614.792V541.414C1238.61 541.11 1239.86 539.678 1239.86 537.929C1239.86 535.965 1238.28 534.381 1236.32 534.381C1234.36 534.381 1232.77 535.965 1232.77 537.929C1232.77 539.678 1234.03 541.11 1235.69 541.414V582.45L1221.99 568.737V553.01C1223.64 552.706 1224.9 551.274 1224.9 549.525C1224.9 547.561 1223.32 545.977 1221.35 545.977C1219.39 545.977 1217.81 547.561 1217.81 549.525C1217.81 551.274 1219.06 552.706 1220.72 553.01V569.27L1235.69 584.249V615.324L1252.93 632.585V671.897L1235.27 689.576V713.528L1227.09 721.715V673.62L1235.48 665.218V644.447C1237.5 644.143 1239.05 642.406 1239.05 640.303C1239.05 637.983 1237.17 636.095 1234.85 636.095C1232.53 636.095 1230.65 637.983 1230.65 640.303C1230.65 642.406 1232.2 644.13 1234.22 644.447V664.686L1226.46 672.454L1216.97 662.962V603.677C1218.64 603.373 1219.91 601.928 1219.91 600.167C1219.91 598.19 1218.31 596.593 1216.34 596.593C1214.36 596.593 1212.77 598.19 1212.77 600.167C1212.77 601.916 1214.03 603.373 1215.71 603.677V663.482L1225.82 673.607V780.543L1211.01 795.371V852.78L1195.7 868.102V896.261L1182.09 909.885V1024H1175.04V901.901L1183.27 893.663V868.457L1206.1 845.607V786.132L1218.86 773.358V746.947C1220.53 746.643 1221.8 745.198 1221.8 743.436C1221.8 741.459 1220.2 739.862 1218.23 739.862C1216.25 739.862 1214.66 741.459 1214.66 743.436C1214.66 745.185 1215.92 746.643 1217.59 746.947V772.838L1204.83 785.612V845.087L1182 867.937V893.144L1173.77 901.381V1024H1173V900.215L1181.23 891.978V847.584L1197.16 831.641V780.949L1214.01 764.081V719.18C1215.68 718.876 1216.95 717.431 1216.95 715.67C1216.95 713.693 1215.35 712.096 1213.38 712.096C1211.4 712.096 1209.81 713.693 1209.81 715.67C1209.81 717.418 1211.07 718.876 1212.74 719.18V762.294L1204.02 753.562V741.371C1206.03 741.066 1207.59 739.33 1207.59 737.227C1207.59 734.907 1205.7 733.019 1203.39 733.019C1201.07 733.019 1199.18 734.907 1199.18 737.227C1199.18 739.33 1200.74 741.054 1202.75 741.371V754.082L1212.48 763.815L1195.89 780.416V831.109L1179.96 847.052V891.446L1171.73 899.683V1024H1164.84V869.42L1172.78 861.474V845.924L1181.55 837.154V814.228L1191.14 804.622V737.163L1198.36 729.939V710.702L1210.59 698.459V645.422L1202.59 637.413V629.987C1204.26 629.682 1205.53 628.238 1205.53 626.476C1205.53 624.499 1203.93 622.902 1201.96 622.902C1199.98 622.902 1198.39 624.499 1198.39 626.476C1198.39 628.225 1199.65 629.682 1201.32 629.987V637.945L1209.32 645.955V697.94L1198.36 708.915V699.942L1186.2 687.776V684.899L1196.49 674.609V655.536C1198.16 655.232 1199.42 653.787 1199.42 652.025C1199.42 650.048 1197.83 648.451 1195.85 648.451C1193.88 648.451 1192.28 650.048 1192.28 652.025C1192.28 653.774 1193.55 655.232 1195.22 655.536V674.076L1186.2 683.1V630.582C1187.88 630.278 1189.14 628.833 1189.14 627.072C1189.14 625.095 1187.55 623.498 1185.57 623.498C1183.6 623.498 1182 625.095 1182 627.072C1182 628.821 1183.27 630.278 1184.94 630.582V688.296L1197.09 700.462V729.42L1189.88 736.643V804.102L1180.28 813.709V836.634L1171.52 845.404V860.954L1163.58 868.9V1024H1162.77V840.55L1171.45 831.857V809.932L1171.49 809.894L1176.25 805.129C1176.83 805.535 1177.53 805.775 1178.28 805.775C1180.24 805.775 1181.85 804.179 1181.85 802.202C1181.85 800.225 1180.25 798.628 1178.28 798.628C1176.3 798.628 1174.71 800.225 1174.71 802.202C1174.71 802.962 1174.95 803.659 1175.34 804.229L1171.48 808.095V786.094L1180.22 777.35V738.316L1170.99 729.078C1171.39 728.495 1171.62 727.798 1171.62 727.05C1171.62 725.073 1170.02 723.476 1168.05 723.476C1166.07 723.476 1164.48 725.073 1164.48 727.05C1164.48 729.027 1166.07 730.624 1168.05 730.624C1168.81 730.624 1169.5 730.383 1170.07 729.977L1178.94 738.849V776.83L1171.47 784.307V754.665L1161.45 744.64C1161.86 744.057 1162.08 743.36 1162.08 742.613C1162.08 740.636 1160.49 739.039 1158.51 739.039C1156.54 739.039 1154.94 740.636 1154.94 742.613C1154.94 744.59 1156.54 746.186 1158.51 746.186C1159.27 746.186 1159.97 745.946 1160.54 745.54L1170.19 755.197V784.32L1159.94 774.067C1160.35 773.484 1160.59 772.787 1160.59 772.04C1160.59 770.062 1158.99 768.466 1157.02 768.466C1155.04 768.466 1153.45 770.062 1153.45 772.04C1153.45 774.017 1155.04 775.613 1157.02 775.613C1157.78 775.613 1158.48 775.373 1159.05 774.98L1170.19 786.132V831.324L1161.5 840.018V1024H1160.77V790.707L1152.31 782.241V729.014V729.002L1172.33 708.965V688.549L1163.11 679.323V659.515C1164.78 659.211 1166.05 657.766 1166.05 656.005C1166.05 654.028 1164.45 652.431 1162.48 652.431C1160.5 652.431 1158.91 654.028 1158.91 656.005C1158.91 657.753 1160.17 659.211 1161.84 659.515V679.843L1171.06 689.069V708.446L1151.68 727.848L1145.51 721.677V668.171L1151.55 662.126V640.645L1173.59 618.581C1174.29 619.088 1175.14 619.405 1176.08 619.405C1178.39 619.405 1180.28 617.516 1180.28 615.197C1180.28 612.878 1178.39 610.99 1176.08 610.99C1173.76 610.99 1171.87 612.878 1171.87 615.197C1171.87 616.122 1172.19 616.984 1172.69 617.681L1150.28 640.112V661.593L1144.88 667.005L1136.29 658.412V618.72L1157.39 597.607C1157.96 598 1158.65 598.24 1159.4 598.24C1161.36 598.24 1162.95 596.656 1162.95 594.692C1162.95 592.728 1161.36 591.144 1159.4 591.144C1157.44 591.144 1155.85 592.728 1155.85 594.692C1155.85 595.44 1156.1 596.137 1156.49 596.707L1136.29 616.921V587.747L1148.08 575.948V532.391C1149.74 532.087 1150.99 530.655 1150.99 528.906C1150.99 526.942 1149.41 525.357 1147.45 525.357C1145.48 525.357 1143.9 526.942 1143.9 528.906C1143.9 530.655 1145.16 532.087 1146.81 532.391V575.416L1136.29 585.948V557.37L1125.21 546.281C1125.61 545.71 1125.85 545.013 1125.85 544.266C1125.85 542.301 1124.26 540.717 1122.3 540.717C1120.34 540.717 1118.76 542.301 1118.76 544.266C1118.76 546.23 1120.34 547.814 1122.3 547.814C1123.05 547.814 1123.75 547.573 1124.31 547.181L1135.03 557.902V618.201L1134.9 618.327L1135.03 618.454V658.945L1144.24 668.171V722.209L1151.04 729.014V782.761L1159.5 791.227V1024H1158.73V802.582L1134.79 778.617V730.18L1123.76 719.142L1132.41 710.474V693.492C1134.08 693.187 1135.34 691.743 1135.34 689.981C1135.34 688.004 1133.75 686.407 1131.77 686.407C1129.8 686.407 1128.2 688.004 1128.2 689.981C1128.2 691.73 1129.47 693.187 1131.14 693.492V709.954L1123.49 717.609V645.422C1125.51 645.118 1127.06 643.382 1127.06 641.278C1127.06 638.959 1125.18 637.071 1122.86 637.071C1120.54 637.071 1118.66 638.959 1118.66 641.278C1118.66 643.382 1120.21 645.106 1122.23 645.422V677.067L1113.86 668.69V621.724L1125.56 610.014V572.692C1127.21 572.387 1128.47 570.955 1128.47 569.206C1128.47 567.242 1126.89 565.658 1124.92 565.658C1122.96 565.658 1121.38 567.242 1121.38 569.206C1121.38 570.955 1122.63 572.387 1124.29 572.692V609.494L1113.86 619.937V593.805C1115.53 593.501 1116.79 592.056 1116.79 590.294C1116.79 588.317 1115.2 586.721 1113.22 586.721C1111.25 586.721 1109.65 588.317 1109.65 590.294C1109.65 592.043 1110.92 593.501 1112.59 593.805V669.223L1122.23 678.867V719.395L1133.52 730.7V779.136L1157.46 803.101V1024H1156.68V845.075L1137.82 826.204V809.78L1137.85 809.767V796.068C1139.52 795.764 1140.79 794.319 1140.79 792.557C1140.79 790.58 1139.19 788.983 1137.22 788.983C1135.24 788.983 1133.65 790.58 1133.65 792.557C1133.65 794.306 1134.91 795.764 1136.58 796.068V808.234L1126.05 797.69V776.691C1127.72 776.386 1128.99 774.942 1128.99 773.18C1128.99 771.216 1127.39 769.606 1125.42 769.606C1123.44 769.606 1121.85 771.203 1121.85 773.18C1121.85 774.929 1123.11 776.386 1124.78 776.691V798.222L1136.58 810.034V824.937L1121.17 809.514V766.552L1108.26 753.625V692.389C1109.93 692.098 1111.21 690.64 1111.21 688.879C1111.21 686.902 1109.61 685.305 1107.64 685.305C1105.66 685.305 1104.07 686.902 1104.07 688.879C1104.07 690.628 1105.32 692.072 1106.98 692.376V729.585L1101.99 724.591C1102.4 724.008 1102.63 723.311 1102.63 722.564C1102.63 720.587 1101.03 718.99 1099.06 718.99C1097.08 718.99 1095.48 720.587 1095.48 722.564C1095.48 724.541 1097.08 726.138 1099.06 726.138C1099.81 726.138 1100.51 725.897 1101.08 725.491L1106.97 731.384V754.145L1119.88 767.072V808.234L1103.97 792.304V778.465L1108.26 774.169V770.316C1109.93 770.012 1111.2 768.567 1111.2 766.806C1111.2 764.829 1109.6 763.232 1107.63 763.232C1105.65 763.232 1104.06 764.829 1104.06 766.806C1104.06 768.554 1105.32 770.012 1106.99 770.316V773.636L1102.7 777.932V791.036L1093.85 782.178V702.832L1098.43 698.244V612.396C1100.11 612.092 1101.37 610.647 1101.37 608.886C1101.37 606.909 1099.78 605.312 1097.8 605.312C1095.83 605.312 1094.23 606.909 1094.23 608.886C1094.23 610.635 1095.5 612.092 1097.17 612.396V697.712L1093.22 701.666L1070.17 678.601L1083.52 665.243V641.646C1085.19 641.342 1086.46 639.897 1086.46 638.135C1086.46 636.158 1084.86 634.562 1082.89 634.562C1080.91 634.562 1079.32 636.158 1079.32 638.135C1079.32 639.884 1080.58 641.342 1082.25 641.646V664.724L1069.91 677.08V653.28C1071.92 652.976 1073.48 651.239 1073.48 649.136C1073.48 646.817 1071.59 644.928 1069.28 644.928C1066.96 644.928 1065.07 646.817 1065.07 649.136C1065.07 651.239 1066.63 652.963 1068.64 653.28V678.867L1092.58 702.832V782.71L1155.41 845.594V1024H1151.6V867.709L1077.19 793.229L1083.92 786.487V764.575C1085.94 764.271 1087.49 762.535 1087.49 760.431C1087.49 758.112 1085.61 756.224 1083.29 756.224C1080.97 756.224 1079.09 758.112 1079.09 760.431C1079.09 762.535 1080.65 764.258 1082.66 764.575V785.967L1076.92 791.708V747.948L1088.36 736.517V712.577C1090.03 712.273 1091.29 710.828 1091.29 709.067C1091.29 707.09 1089.7 705.493 1087.72 705.493C1085.75 705.493 1084.15 707.09 1084.15 709.067C1084.15 710.816 1085.42 712.273 1087.09 712.577V735.985L1075.66 747.416V793.482L1150.33 868.228V1024H1146.92V882.891L1060.13 796.03V774.422L1060.15 774.435L1068.96 765.614V735.959L1077.58 727.329V712.577C1079.25 712.273 1080.52 710.828 1080.52 709.067C1080.52 707.09 1078.92 705.493 1076.95 705.493C1074.97 705.493 1073.38 707.09 1073.38 709.067C1073.38 710.816 1074.64 712.273 1076.31 712.577V726.797L1068.33 734.793L1061.78 728.241V712.577C1063.45 712.273 1064.72 710.828 1064.72 709.067C1064.72 707.09 1063.12 705.493 1061.15 705.493C1059.17 705.493 1057.58 707.09 1057.58 709.067C1057.58 710.816 1058.84 712.273 1060.51 712.577V728.774L1067.69 735.959V765.095L1059.78 773.015L1034.2 747.416V710.689L1043.85 701.032V661.277C1045.52 660.972 1046.79 659.528 1046.79 657.766C1046.79 655.789 1045.19 654.192 1043.22 654.192C1041.24 654.192 1039.65 655.789 1039.65 657.766C1039.65 659.515 1040.91 660.972 1042.58 661.277V700.5L1033.57 709.523L1020.34 696.28V680.21L1032.72 667.816V628.859L1052.73 608.835C1053.3 609.228 1053.99 609.469 1054.74 609.469C1056.7 609.469 1058.28 607.885 1058.28 605.92C1058.28 603.956 1056.7 602.372 1054.74 602.372C1052.78 602.372 1051.19 603.956 1051.19 605.92C1051.19 606.668 1051.43 607.365 1051.83 607.935L1031.45 628.326V667.284L1020.34 678.411V626.755C1022.35 626.451 1023.91 624.715 1023.91 622.611C1023.91 620.292 1022.02 618.403 1019.71 618.403C1017.39 618.403 1015.5 620.292 1015.5 622.611C1015.5 624.715 1017.06 626.438 1019.07 626.755V664.153L1004.41 649.478V614.107C1006.07 613.803 1007.32 612.371 1007.32 610.622C1007.32 608.658 1005.74 607.074 1003.78 607.074C1001.81 607.074 1000.23 608.658 1000.23 610.622C1000.23 612.371 1001.49 613.803 1003.14 614.107V649.997L1019.07 665.94V696.787L1032.94 710.664V746.123L1022.03 735.211V716.329L1002.19 696.47V669.717C1003.85 669.413 1005.11 667.981 1005.11 666.232C1005.11 664.267 1003.52 662.683 1001.56 662.683C999.599 662.683 998.016 664.267 998.016 666.232C998.016 667.981 999.269 669.413 1000.93 669.717V695.202L989.165 683.429V669.514L979.429 659.768V635.132C981.087 634.828 982.341 633.396 982.341 631.647C982.341 629.682 980.758 628.098 978.796 628.098C976.833 628.098 975.25 629.682 975.25 631.647C975.25 633.396 976.504 634.828 978.162 635.132V660.288L987.899 670.034V682.162L955.789 650.023C956.195 649.44 956.423 648.743 956.423 647.995C956.423 646.018 954.827 644.421 952.852 644.421C950.877 644.421 949.281 646.018 949.281 647.995C949.281 649.972 950.877 651.569 952.852 651.569C953.612 651.569 954.308 651.328 954.878 650.923L979.859 675.927H959.373L950.054 666.599C950.446 666.029 950.687 665.332 950.687 664.584C950.687 662.62 949.104 661.036 947.142 661.036C945.179 661.036 943.596 662.62 943.596 664.584C943.596 666.549 945.179 668.133 947.142 668.133C947.889 668.133 948.585 667.892 949.155 667.499L958.208 676.56L949.218 685.558C948.648 685.165 947.952 684.925 947.205 684.925C945.242 684.925 943.66 686.509 943.66 688.473C943.66 690.437 945.242 692.022 947.205 692.022C949.167 692.022 950.75 690.437 950.75 688.473C950.75 687.725 950.51 687.028 950.117 686.458L959.373 677.194H981.125L1020.76 716.861V733.957L1006.03 719.218C1006.42 718.648 1006.66 717.951 1006.66 717.203C1006.66 715.239 1005.08 713.654 1003.12 713.654C1001.16 713.654 999.573 715.239 999.573 717.203C999.573 719.167 1001.16 720.751 1003.12 720.751C1003.87 720.751 1004.56 720.511 1005.13 720.118L1020.95 735.947L1058.87 773.902V796.562L1145.65 883.423V1024H1144.84V884.615L1050.11 789.795H1035.05L1035.09 789.769L995.762 750.407V729.952L984.658 718.838V712.818C986.671 712.514 988.228 710.778 988.228 708.674C988.228 706.355 986.342 704.466 984.025 704.466C981.708 704.466 979.821 706.355 979.821 708.674C979.821 710.778 981.378 712.501 983.392 712.818V719.37L994.496 730.484V750.039H982.797L971.135 738.367C971.54 737.784 971.768 737.087 971.768 736.339C971.768 734.362 970.173 732.766 968.198 732.766C966.223 732.766 964.627 734.362 964.627 736.339C964.627 738.316 966.223 739.913 968.198 739.913C968.958 739.913 969.654 739.672 970.224 739.28L982.252 751.319H994.838L1019.63 776.133H1004.08L995.256 767.3C995.648 766.729 995.889 766.032 995.889 765.285C995.889 763.32 994.306 761.736 992.343 761.736C990.381 761.736 988.798 763.32 988.798 765.285C988.798 767.249 990.381 768.833 992.343 768.833C993.09 768.833 993.787 768.592 994.357 768.2L1003.55 777.4H1020.88L1034.52 791.049H1049.57L1143.57 885.134V1024H1142.84V886.3L1085.51 828.916H1059.18L1059.2 828.891L1037.79 807.461H986.38C986.076 805.788 984.633 804.521 982.873 804.521C980.897 804.521 979.302 806.118 979.302 808.095C979.302 810.072 980.897 811.668 982.873 811.668C984.62 811.668 986.076 810.401 986.38 808.728H1035.99L1029.06 815.66H969.097C968.793 813.988 967.349 812.72 965.59 812.72C963.614 812.72 962.019 814.317 962.019 816.294C962.019 818.271 963.614 819.868 965.59 819.868C967.337 819.868 968.793 818.601 969.097 816.928H1029.59L1037.52 808.994L1049.65 821.135H979.568L973.224 827.484C972.642 827.079 971.946 826.851 971.199 826.851C969.223 826.851 967.628 828.448 967.628 830.425C967.628 832.402 969.223 833.998 971.199 833.998C973.174 833.998 974.769 832.402 974.769 830.425C974.769 829.664 974.529 828.967 974.123 828.397L980.087 822.428H1050.9L1058.65 830.184H1084.98L1141.57 886.833V1024H1140.83V887.986L1105.39 852.514H1080.8L1080.78 852.501L1068.21 839.917H1027.34C1027.04 838.257 1025.61 837.002 1023.86 837.002C1021.9 837.002 1020.31 838.586 1020.31 840.55C1020.31 842.515 1021.9 844.099 1023.86 844.099C1025.59 844.099 1027.04 842.844 1027.34 841.184H1067.68L1078.99 852.501H1009.45L995.294 838.32C995.699 837.737 995.927 837.04 995.927 836.292C995.927 834.315 994.331 832.718 992.356 832.718C990.381 832.718 988.786 834.315 988.786 836.292C988.786 838.269 990.381 839.866 992.356 839.866C993.116 839.866 993.812 839.625 994.382 839.232L1008.92 853.781H1059.64L1048.19 865.238H1014.68C1014.37 863.577 1012.94 862.323 1011.2 862.323C1009.23 862.323 1007.65 863.907 1007.65 865.871C1007.65 867.836 1009.23 869.42 1011.2 869.42C1012.93 869.42 1014.37 868.165 1014.68 866.505H1048.73L1061.44 853.781H1104.85L1139.56 888.518V1024H1138.77V889.709L1124.14 875.059H1087.52V875.009L1078.02 865.504C1078.42 864.933 1078.66 864.236 1078.66 863.489C1078.66 861.524 1077.07 859.94 1075.11 859.94C1073.15 859.94 1071.57 861.524 1071.57 863.489C1071.57 865.453 1073.15 867.037 1075.11 867.037C1075.86 867.037 1076.56 866.796 1077.13 866.404L1085.74 875.021H1040.34L1035.99 870.662H967.945L962.88 865.592C962.896 865.569 962.913 865.548 962.932 865.528C962.94 865.52 962.947 865.513 962.955 865.505L962.969 865.491L962.969 865.491C962.986 865.473 963.003 865.456 963.019 865.438L963.03 865.426L963.036 865.419C963.043 865.41 963.05 865.4 963.057 865.39C963.855 864.148 963.931 862.614 963.285 861.195C962.918 860.384 962.26 859.725 961.449 859.357C959.423 858.432 957.119 859.091 955.979 860.865C955.182 862.107 955.106 863.641 955.752 865.06C956.119 865.871 956.777 866.518 957.587 866.898C958.221 867.189 958.866 867.329 959.512 867.329C960.424 867.329 961.272 867.012 961.981 866.492L967.425 871.942H1035.46L1039.18 875.668L1028.71 886.148H988.178L982.442 891.889C981.86 891.484 981.163 891.255 980.416 891.255C978.441 891.255 976.846 892.852 976.846 894.829C976.846 896.806 978.441 898.403 980.416 898.403C982.391 898.403 983.987 896.806 983.987 894.829C983.987 894.069 983.746 893.372 983.341 892.802L988.697 887.441H1014.1L1005.87 895.678C1005.3 895.286 1004.6 895.045 1003.85 895.045C1001.89 895.045 1000.31 896.629 1000.31 898.593C1000.31 900.557 1001.89 902.142 1003.85 902.142C1005.82 902.142 1007.4 900.557 1007.4 898.593C1007.4 897.845 1007.16 897.148 1006.76 896.578L1015.89 887.441H1029.24L1040.34 876.327H1097.31L1079.67 893.98H1059.72C1059.41 892.32 1057.98 891.065 1056.23 891.065C1054.27 891.065 1052.69 892.649 1052.69 894.614C1052.69 896.578 1054.27 898.162 1056.23 898.162C1057.97 898.162 1059.41 896.908 1059.72 895.247H1080.19L1099.09 876.327H1123.62L1137.51 890.229V1024H0V0ZM1016.78 622.649C1016.78 621.027 1018.1 619.709 1019.72 619.709C1021.34 619.709 1022.66 621.027 1022.66 622.649C1022.66 624.271 1021.34 625.589 1019.72 625.589C1018.1 625.589 1016.78 624.271 1016.78 622.649ZM984.037 705.747C982.417 705.747 981.1 707.065 981.1 708.687C981.1 710.309 982.417 711.627 984.037 711.627C985.658 711.627 986.975 710.309 986.975 708.687C986.975 707.065 985.658 705.747 984.037 705.747ZM958.107 865.719C957.575 865.478 957.132 865.035 956.891 864.503C956.423 863.476 956.473 862.399 957.03 861.524C957.575 860.675 958.499 860.168 959.499 860.168C959.968 860.168 960.436 860.282 960.892 860.485C961.424 860.726 961.867 861.169 962.108 861.702C962.576 862.728 962.525 863.805 961.968 864.68C961.171 865.922 959.55 866.378 958.094 865.719H958.107ZM1411.39 825.482C1411.39 823.86 1410.07 822.542 1408.45 822.542C1406.83 822.542 1405.52 823.86 1405.52 825.482C1405.52 827.104 1406.83 828.422 1408.45 828.422C1410.07 828.422 1411.39 827.104 1411.39 825.482ZM1119.93 641.291C1119.93 639.669 1121.25 638.351 1122.87 638.351C1124.49 638.351 1125.81 639.669 1125.81 641.291C1125.81 642.913 1124.49 644.231 1122.87 644.231C1121.25 644.231 1119.93 642.913 1119.93 641.291ZM1179.01 615.197C1179.01 613.575 1177.7 612.257 1176.08 612.257C1174.45 612.257 1173.14 613.575 1173.14 615.197C1173.14 616.819 1174.45 618.137 1176.08 618.137C1177.7 618.137 1179.01 616.819 1179.01 615.197ZM1231.91 640.303C1231.91 638.68 1233.23 637.362 1234.85 637.362C1236.47 637.362 1237.79 638.68 1237.79 640.303C1237.79 641.925 1236.47 643.243 1234.85 643.243C1233.23 643.243 1231.91 641.925 1231.91 640.303ZM1375.85 651.772C1375.85 650.162 1374.55 648.857 1372.94 648.857C1371.33 648.857 1370.03 650.162 1370.03 651.772C1370.03 653.381 1371.33 654.687 1372.94 654.687C1374.55 654.687 1375.85 653.381 1375.85 651.772ZM1282.34 719.51C1280.72 719.51 1279.41 720.828 1279.41 722.45C1279.41 724.072 1280.72 725.39 1282.34 725.39C1283.96 725.39 1285.28 724.072 1285.28 722.45C1285.28 720.828 1283.96 719.51 1282.34 719.51ZM1200.45 737.239C1200.45 735.617 1201.77 734.299 1203.39 734.299C1205.01 734.299 1206.32 735.617 1206.32 737.239C1206.32 738.861 1205.01 740.179 1203.39 740.179C1201.77 740.179 1200.45 738.861 1200.45 737.239ZM1066.36 649.148C1066.36 647.526 1067.68 646.208 1069.3 646.208C1070.92 646.208 1072.24 647.526 1072.24 649.148C1072.24 650.771 1070.92 652.089 1069.3 652.089C1067.68 652.089 1066.36 650.771 1066.36 649.148ZM1083.29 757.503C1081.67 757.503 1080.35 758.821 1080.35 760.444C1080.35 762.066 1081.67 763.384 1083.29 763.384C1084.91 763.384 1086.23 762.066 1086.23 760.444C1086.23 758.821 1084.91 757.503 1083.29 757.503ZM1383.71 726.315C1384.54 724.655 1386.75 724.161 1388.5 725.453C1389.33 726.581 1389.5 727.836 1388.97 728.913C1388.14 730.573 1385.93 731.067 1384.18 729.775C1383.35 728.647 1383.18 727.392 1383.71 726.315ZM1149.95 680.147C1149.95 678.17 1151.55 676.573 1153.53 676.573L1153.51 676.586C1155.49 676.586 1157.08 678.182 1157.08 680.159C1157.08 680.907 1156.86 681.604 1156.45 682.187L1163.57 689.309V707.128L1159.34 711.361C1159.84 712.058 1160.16 712.919 1160.16 713.845C1160.16 716.164 1158.27 718.052 1155.96 718.052C1153.64 718.052 1151.75 716.164 1151.75 713.845C1151.75 711.525 1153.64 709.637 1155.96 709.637C1156.89 709.637 1157.74 709.941 1158.44 710.461L1162.3 706.596V689.829L1155.55 683.074C1154.98 683.48 1154.28 683.721 1153.53 683.721C1151.55 683.721 1149.95 682.124 1149.95 680.147ZM1153.03 713.832C1153.03 715.454 1154.35 716.772 1155.97 716.772C1157.59 716.772 1158.91 715.454 1158.91 713.832C1158.91 712.21 1157.59 710.892 1155.97 710.892C1154.35 710.892 1153.03 712.21 1153.03 713.832ZM1181.24 676.389C1181.24 674.415 1179.64 672.822 1177.67 672.822C1175.7 672.822 1174.1 674.419 1174.1 676.396C1174.1 678.144 1175.37 679.602 1177.04 679.906V704.619L1183.1 710.689V721.284C1181.43 721.588 1180.17 723.033 1180.17 724.794C1180.17 726.771 1181.76 728.368 1183.74 728.368C1185.71 728.368 1187.31 726.771 1187.31 724.794C1187.31 723.045 1186.04 721.588 1184.37 721.284V710.157L1178.3 704.086V679.893C1179.97 679.59 1181.24 678.148 1181.24 676.389ZM1111.32 725.694C1111.32 723.721 1112.91 722.127 1114.88 722.12C1116.85 722.127 1118.44 723.721 1118.44 725.694C1118.44 726.442 1118.21 727.139 1117.81 727.722L1123.49 733.412V750.166C1125.16 750.47 1126.43 751.927 1126.43 753.676C1126.43 755.653 1124.83 757.25 1122.86 757.25C1120.88 757.25 1119.29 755.653 1119.29 753.676C1119.29 751.915 1120.55 750.47 1122.23 750.166V733.931L1116.92 728.621C1116.35 729.027 1115.65 729.268 1114.89 729.268C1112.92 729.268 1111.32 727.671 1111.32 725.694ZM1095.26 796.118C1093.29 796.122 1091.7 797.717 1091.7 799.692C1091.7 801.669 1093.29 803.266 1095.27 803.266C1096.03 803.266 1096.73 803.025 1097.3 802.62L1132.06 837.42C1131.56 838.117 1131.24 838.966 1131.24 839.904C1131.24 842.223 1133.13 844.112 1135.44 844.112C1137.76 844.112 1139.65 842.223 1139.65 839.904C1139.65 837.585 1137.76 835.697 1135.44 835.697C1134.52 835.697 1133.66 836.013 1132.96 836.52L1098.19 801.72C1098.6 801.137 1098.83 800.44 1098.83 799.692C1098.83 797.717 1097.24 796.122 1095.26 796.118ZM1135.43 836.951C1137.05 836.951 1138.37 838.269 1138.37 839.891C1138.37 841.514 1137.05 842.831 1135.43 842.831C1133.81 842.831 1132.49 841.514 1132.49 839.891C1132.49 838.269 1133.81 836.951 1135.43 836.951ZM1019.2 743.259C1021.17 743.259 1022.76 744.849 1022.77 746.82C1022.76 748.576 1021.5 750.014 1019.83 750.318V760.646L1037.75 778.579C1038.32 778.186 1039.01 777.945 1039.77 777.945C1041.75 777.945 1043.34 779.542 1043.34 781.519C1043.34 783.496 1041.75 785.093 1039.77 785.093C1037.8 785.093 1036.2 783.496 1036.2 781.519C1036.2 780.771 1036.44 780.062 1036.85 779.491L1018.57 761.191V750.343C1016.89 750.039 1015.63 748.582 1015.63 746.833C1015.63 744.856 1017.22 743.259 1019.2 743.259ZM1063.6 694.569C1065.58 694.569 1067.17 692.972 1067.17 690.995C1067.17 689.018 1065.58 687.421 1063.6 687.421C1062.84 687.421 1062.15 687.662 1061.58 688.068L1056.96 683.442V657.944C1058.63 657.639 1059.89 656.195 1059.89 654.433C1059.89 652.456 1058.3 650.859 1056.32 650.859C1054.35 650.859 1052.75 652.456 1052.75 654.433C1052.75 656.182 1054.02 657.639 1055.69 657.944V683.961L1060.68 688.955C1060.27 689.538 1060.04 690.235 1060.04 690.982C1060.04 692.959 1061.64 694.556 1063.62 694.556L1063.6 694.569ZM1061.15 750.483C1061.15 752.46 1059.55 754.056 1057.58 754.056L1057.59 754.031C1055.61 754.031 1054.02 752.434 1054.02 750.457C1054.02 749.71 1054.25 749.012 1054.65 748.43L1044.15 737.924V718.458C1042.14 718.141 1040.58 716.417 1040.58 714.314C1040.58 711.994 1042.47 710.106 1044.79 710.106C1047.1 710.106 1048.99 711.994 1048.99 714.314C1048.99 716.417 1047.43 718.153 1045.42 718.458V737.404L1055.55 747.542C1056.12 747.15 1056.82 746.909 1057.58 746.909C1059.55 746.909 1061.15 748.506 1061.15 750.483ZM1044.79 711.399C1043.17 711.399 1041.85 712.717 1041.85 714.339C1041.85 715.961 1043.17 717.279 1044.79 717.279C1046.41 717.279 1047.73 715.961 1047.73 714.339C1047.73 712.717 1046.41 711.399 1044.79 711.399ZM1261.57 742.537C1263.24 742.232 1264.5 740.788 1264.5 739.026C1264.5 737.049 1262.91 735.452 1260.93 735.452C1258.96 735.452 1257.36 737.049 1257.36 739.026C1257.36 740.775 1258.63 742.232 1260.3 742.537V774.726L1252.58 782.457C1251.88 781.937 1251.03 781.633 1250.09 781.633C1247.78 781.633 1245.89 783.521 1245.89 785.841C1245.89 788.16 1247.78 790.048 1250.09 790.048C1252.41 790.048 1254.3 788.16 1254.3 785.841C1254.3 784.915 1253.98 784.054 1253.48 783.357L1261.57 775.258V742.537ZM1250.09 788.768C1248.47 788.768 1247.16 787.45 1247.16 785.828C1247.16 784.206 1248.47 782.888 1250.09 782.888C1251.72 782.888 1253.03 784.206 1253.03 785.828C1253.03 787.45 1251.72 788.768 1250.09 788.768ZM1325.17 654.42V613.017V613.005C1323.15 612.688 1321.59 610.964 1321.59 608.861C1321.59 606.541 1323.48 604.653 1325.8 604.653C1328.12 604.653 1330 606.541 1330 608.861C1330 610.964 1328.44 612.701 1326.43 613.005V651.354L1338.05 639.72V630.24C1336.38 629.936 1335.12 628.479 1335.12 626.73C1335.12 624.753 1336.71 623.156 1338.69 623.156C1340.66 623.156 1342.26 624.753 1342.26 626.73C1342.26 628.491 1340.99 629.936 1339.32 630.24V640.252L1325.17 654.42ZM1328.74 608.886C1328.74 607.264 1327.42 605.946 1325.8 605.946C1324.18 605.946 1322.86 607.264 1322.86 608.886C1322.86 610.508 1324.18 611.826 1325.8 611.826C1327.42 611.826 1328.74 610.508 1328.74 608.886ZM1233.01 797.335C1234.99 797.335 1236.58 795.738 1236.58 793.761C1236.58 791.784 1234.99 790.187 1233.01 790.187C1231.04 790.187 1229.44 791.784 1229.44 793.761C1229.44 794.522 1229.68 795.219 1230.08 795.789L1220.25 805.623C1219.67 805.218 1218.97 804.99 1218.23 804.99C1216.26 804.99 1214.66 806.586 1214.66 808.563C1214.66 810.54 1216.25 812.137 1218.23 812.137C1220.2 812.137 1221.8 810.54 1221.8 808.563C1221.8 807.803 1221.56 807.106 1221.15 806.536L1230.98 796.701C1231.56 797.107 1232.25 797.348 1233 797.348L1233.01 797.335ZM1251.88 575.948V550.78L1251.87 550.767C1250.2 550.463 1248.93 549.005 1248.93 547.257C1248.93 545.28 1250.53 543.683 1252.5 543.683C1254.48 543.683 1256.07 545.28 1256.07 547.257C1256.07 549.018 1254.8 550.463 1253.13 550.767V572.882L1266.34 559.664C1265.93 559.093 1265.69 558.396 1265.69 557.636C1265.69 555.659 1267.29 554.062 1269.26 554.062C1271.24 554.062 1272.83 555.659 1272.83 557.636C1272.83 559.613 1271.23 561.21 1269.26 561.21C1268.52 561.21 1267.82 560.982 1267.24 560.576L1251.88 575.948ZM1149.85 545.951C1149.85 547.7 1151.12 549.158 1152.79 549.462V565.519L1162.69 575.429L1177.34 560.766L1177.4 560.703L1177.52 560.589L1194.13 543.962V519.034C1195.79 518.729 1197.04 517.297 1197.04 515.548C1197.04 513.584 1195.46 512 1193.5 512C1191.54 512 1189.95 513.584 1189.95 515.548C1189.95 517.297 1191.21 518.729 1192.86 519.034V543.429L1177.52 558.789V530.553C1179.19 530.249 1180.46 528.805 1180.46 527.043C1180.46 525.066 1178.86 523.469 1176.89 523.469C1174.91 523.469 1173.32 525.066 1173.32 527.043C1173.32 528.792 1174.58 530.249 1176.25 530.553V560.056L1162.68 573.642L1154.04 564.999V549.462C1155.72 549.158 1156.98 547.713 1156.98 545.951C1156.98 543.974 1155.39 542.377 1153.41 542.377C1151.44 542.377 1149.84 543.974 1149.84 545.951H1149.85ZM1097.65 592.576C1097.65 594.895 1095.76 596.783 1093.45 596.783H1093.43C1091.12 596.783 1089.23 594.895 1089.23 592.576C1089.23 590.472 1090.79 588.736 1092.8 588.432V576.379L1108.16 561.007C1107.75 560.437 1107.51 559.74 1107.51 558.979C1107.51 557.002 1109.11 555.405 1111.08 555.405C1113.06 555.405 1114.65 557.002 1114.65 558.979C1114.65 560.956 1113.06 562.553 1111.08 562.553C1110.34 562.553 1109.64 562.325 1109.06 561.919L1094.08 576.912V588.432C1096.09 588.748 1097.65 590.472 1097.65 592.576ZM1096.38 592.588C1096.38 590.966 1095.07 589.648 1093.45 589.648C1091.83 589.648 1090.51 590.966 1090.51 592.588C1090.51 594.21 1091.83 595.528 1093.45 595.528C1095.07 595.528 1096.38 594.21 1096.38 592.588ZM1205.04 562.059V594.172L1191.37 607.859V571.741C1193.03 571.437 1194.28 570.005 1194.28 568.256C1194.28 566.292 1192.7 564.707 1190.74 564.707C1188.77 564.707 1187.19 566.292 1187.19 568.256C1187.19 570.005 1188.45 571.437 1190.1 571.741V607.859L1176.7 594.439V580.967C1178.35 580.663 1179.61 579.231 1179.61 577.482C1179.61 575.518 1178.03 573.933 1176.06 573.933C1174.1 573.933 1172.52 575.518 1172.52 577.482C1172.52 579.231 1173.77 580.663 1175.43 580.967V594.958L1190.74 610.28L1206.31 594.692V562.059C1207.97 561.755 1209.22 560.323 1209.22 558.574C1209.22 556.609 1207.64 555.025 1205.68 555.025C1203.72 555.025 1202.13 556.609 1202.13 558.574C1202.13 560.323 1203.39 561.755 1205.04 562.059ZM1077.92 614.082V580.967C1076.26 580.663 1075.01 579.231 1075.01 577.482C1075.01 575.518 1076.59 573.933 1078.56 573.933C1080.52 573.933 1082.1 575.518 1082.1 577.482C1082.1 579.231 1080.85 580.663 1079.19 580.967V614.602L1054.11 639.707V631.609C1052.45 631.305 1051.19 629.873 1051.19 628.124C1051.19 626.159 1052.78 624.575 1054.74 624.575C1056.7 624.575 1058.28 626.159 1058.28 628.124C1058.28 629.873 1057.03 631.305 1055.37 631.609V636.653L1077.92 614.082ZM955.207 793.546L971.351 777.388H984.797L1008.61 801.226H1046.07L1057.77 812.936C1057.25 813.633 1056.94 814.482 1056.94 815.42C1056.94 817.739 1058.83 819.627 1061.15 819.627C1063.46 819.627 1065.35 817.739 1065.35 815.42C1065.35 813.1 1063.46 811.212 1061.15 811.212C1060.22 811.212 1059.36 811.529 1058.66 812.036L1046.6 799.958H1009.15L949.573 740.331C950.079 739.634 950.396 738.785 950.396 737.847C950.396 735.528 948.509 733.64 946.192 733.64C943.875 733.64 941.988 735.528 941.988 737.847C941.988 740.167 943.875 742.055 946.192 742.055C947.116 742.055 947.977 741.738 948.674 741.231L983.531 776.12H959.385L947.04 763.764C947.433 763.194 947.673 762.497 947.673 761.749C947.673 759.785 946.091 758.201 944.128 758.201C942.166 758.201 940.583 759.785 940.583 761.749C940.583 763.713 942.166 765.297 944.128 765.297C944.875 765.297 945.572 765.057 946.141 764.664L958.854 777.388H969.553L954.295 792.659C953.726 792.266 953.029 792.025 952.282 792.025C950.32 792.025 948.737 793.609 948.737 795.573C948.737 797.538 950.32 799.122 952.282 799.122C954.245 799.122 955.827 797.538 955.827 795.573C955.827 794.826 955.587 794.129 955.194 793.558L955.207 793.546ZM1061.15 812.479C1062.77 812.479 1064.08 813.797 1064.08 815.42C1064.08 817.042 1062.77 818.36 1061.15 818.36C1059.53 818.36 1058.21 817.042 1058.21 815.42C1058.21 813.797 1059.53 812.479 1061.15 812.479ZM946.205 740.788C944.584 740.788 943.267 739.47 943.267 737.847C943.267 736.225 944.584 734.907 946.205 734.907C947.825 734.907 949.142 736.225 949.142 737.847C949.142 739.47 947.825 740.788 946.205 740.788ZM1388.18 861.993C1388.18 860.371 1386.86 859.053 1385.24 859.053C1383.62 859.053 1382.31 860.371 1382.31 861.993C1382.31 863.615 1383.62 864.933 1385.24 864.933C1386.86 864.933 1388.18 863.615 1388.18 861.993ZM945.09 711.741C945.09 710.993 944.85 710.296 944.457 709.726L952.232 701.945V715.657C950.573 715.961 949.319 717.393 949.319 719.142C949.319 721.106 950.902 722.69 952.865 722.69C954.827 722.69 956.41 721.106 956.41 719.142C956.41 717.393 955.156 715.961 953.498 715.657V700.677L959.816 694.353H977.922C978.226 696.014 979.657 697.268 981.404 697.268C983.366 697.268 984.949 695.684 984.949 693.72C984.949 691.755 983.366 690.171 981.404 690.171C979.669 690.171 978.226 691.426 977.922 693.086H959.297L943.571 708.826C943.001 708.433 942.305 708.192 941.558 708.192C939.595 708.192 938.013 709.777 938.013 711.741C938.013 713.705 939.595 715.289 941.558 715.289C943.52 715.289 945.103 713.705 945.103 711.741H945.09ZM982.86 727.063C982.86 729.027 981.277 730.611 979.315 730.611V730.598C977.352 730.598 975.769 729.014 975.769 727.05C975.769 726.302 976.01 725.605 976.403 725.035L967.919 716.544V709.143C966.261 708.839 965.007 707.407 965.007 705.658C965.007 703.693 966.59 702.109 968.552 702.109C970.515 702.109 972.098 703.693 972.098 705.658C972.098 707.407 970.844 708.839 969.185 709.143V716.024L977.301 724.148C977.871 723.755 978.568 723.514 979.315 723.514C981.277 723.514 982.86 725.098 982.86 727.063Z" fill="#00B4BB"/>
</svg>
