<svg width="296" height="296" viewBox="0 0 296 296" fill="none" xmlns="http://www.w3.org/2000/svg">
<path d="M148.5 61.8857C100.638 61.8857 61.8857 100.638 61.8857 148.5C61.8857 196.362 100.638 235.114 148.5 235.114C196.362 235.114 235.114 196.362 235.114 148.5C235.114 100.638 196.362 61.8857 148.5 61.8857ZM148.5 228.403C104.394 228.403 68.5976 192.606 68.5976 148.5C68.5976 104.394 104.394 68.5975 148.5 68.5975C192.606 68.5975 228.403 104.394 228.403 148.5C228.403 192.606 192.606 228.403 148.5 228.403Z" fill="white"/>
<path d="M258.765 227.044C257.647 225.286 256.768 223.369 256.768 223.369C255.969 221.611 255.41 220.412 255.01 218.814C254.69 217.296 254.291 215.458 255.01 213.301C255.889 210.504 258.286 209.066 259.644 208.187C262.041 206.669 264.279 206.27 266.596 205.95C267.475 205.79 269.952 205.471 276.264 205.95C278.342 206.11 281.697 206.509 285.053 207.069C290.567 194.204 294.322 180.301 296 165.839C292.964 165.04 287.131 163.442 283.296 161.364C281.458 160.406 279.78 159.207 279.78 159.207C278.182 158.088 277.063 157.369 275.945 156.091C274.906 154.972 273.627 153.534 273.148 151.377C272.509 148.5 273.787 146.023 274.586 144.665C275.945 142.108 277.622 140.749 279.54 139.231C280.259 138.672 282.177 137.154 287.93 134.437C289.848 133.558 292.884 132.28 296 131.001C294.322 116.539 290.567 102.636 284.974 89.7717C282.017 90.6506 276.024 92.1688 271.71 92.2487C269.632 92.2487 267.555 92.1688 267.555 92.1688C265.637 92.009 264.279 91.9291 262.681 91.3698C261.242 90.8903 259.405 90.331 257.887 88.6531C255.889 86.4957 255.809 83.6991 255.729 82.1011C255.649 79.2246 256.448 77.1471 257.247 74.9098C257.567 74.1108 258.526 71.7936 262.121 66.5201C263.32 64.8421 265.238 62.2053 267.395 59.5685C258.845 48.1425 248.618 37.9949 237.192 29.3654C234.955 31.6027 230.72 35.8375 227.044 38.0748C225.286 39.1934 223.369 40.0723 223.369 40.0723C221.611 40.8714 220.412 41.4307 218.814 41.8302C217.296 42.1498 215.458 42.5493 213.301 41.8302C210.504 40.9513 209.066 38.5542 208.187 37.1958C206.669 34.7988 206.27 32.5615 205.95 30.2443C205.79 29.3654 205.471 26.8884 205.95 20.5761C206.11 18.4987 206.509 15.1428 207.069 11.7869C194.204 6.27358 180.301 2.51816 165.839 0.84021C165.04 3.8765 163.442 9.70939 161.364 13.5447C160.406 15.3825 159.207 17.0604 159.207 17.0604C158.088 18.6585 157.369 19.7771 156.091 20.8957C154.972 21.9345 153.534 23.2129 151.377 23.6923C148.5 24.3315 146.023 23.0531 144.665 22.2541C142.108 20.8957 140.749 19.2178 139.231 17.3001C138.672 16.581 137.154 14.6633 134.437 8.91036C133.558 6.9927 132.28 3.95641 131.001 0.84021C116.539 2.51816 102.636 6.27358 89.7717 11.8668C90.6506 14.8231 92.1688 20.8158 92.2487 25.1306C92.2487 27.208 92.1688 29.2855 92.1688 29.2855C92.009 31.2032 91.9291 32.5615 91.3698 34.1596C90.8903 35.5978 90.331 37.4356 88.6531 38.9537C86.4957 40.9513 83.6991 41.0312 82.1011 41.1111C79.2246 41.191 77.1471 40.3919 74.9098 39.5929C74.1108 39.2733 71.7936 38.3145 66.5201 34.7189C64.8421 33.5203 62.2053 31.6027 59.5685 29.4453C48.1425 37.9949 37.9949 48.2224 29.3654 59.6485C31.6027 61.8857 35.8375 66.1206 38.0748 69.7961C39.1934 71.5539 40.0723 73.4716 40.0723 73.4716C40.8714 75.2294 41.4307 76.428 41.8302 78.026C42.1498 79.5442 42.5493 81.3819 41.8302 83.5393C40.9513 86.3359 38.5542 87.7741 37.1958 88.6531C34.7988 90.1712 32.5615 90.5707 30.2443 90.8903C29.3654 91.0501 26.8884 91.3697 20.5761 90.8903C18.4987 90.7305 15.1428 90.331 11.7869 89.7717C6.27358 102.636 2.51816 116.539 0.84021 131.001C3.8765 131.8 9.70939 133.398 13.5447 135.476C15.3825 136.435 17.0604 137.633 17.0604 137.633C18.6585 138.752 19.7771 139.471 20.8957 140.749C21.9345 141.868 23.2129 143.306 23.6923 145.464C24.3315 148.34 23.0531 150.817 22.2541 152.176C20.8957 154.732 19.2178 156.091 17.3001 157.609C16.581 158.168 14.6633 159.686 8.91036 162.403C6.9927 163.282 3.95641 164.56 0.84021 165.839C2.51816 180.301 6.27358 194.204 11.8668 207.069C14.8231 206.19 20.8158 204.671 25.1306 204.592C27.208 204.592 29.2855 204.671 29.2855 204.671C31.2032 204.831 32.5615 204.911 34.1596 205.471C35.5978 205.95 37.4356 206.509 38.9537 208.187C40.9513 210.345 41.0312 213.141 41.1111 214.739C41.191 217.616 40.3919 219.693 39.5929 221.93C39.2733 222.729 38.3145 225.047 34.7189 230.32C33.5203 231.998 31.6027 234.635 29.4453 237.272C37.9949 248.698 48.2224 258.845 59.6485 267.475C61.8857 265.238 66.1206 261.003 69.7961 258.765C71.5539 257.647 73.4716 256.768 73.4716 256.768C75.2294 255.969 76.428 255.41 78.026 255.01C79.5442 254.69 81.3819 254.291 83.5393 255.01C86.3359 255.889 87.7741 258.286 88.6531 259.644C90.1712 262.041 90.5707 264.279 90.8903 266.596C91.0501 267.475 91.3697 269.952 90.8903 276.264C90.7305 278.342 90.331 281.697 89.7717 285.053C102.636 290.567 116.539 294.322 131.001 296C131.8 292.964 133.398 287.131 135.476 283.296C136.435 281.458 137.633 279.78 137.633 279.78C138.752 278.182 139.471 277.063 140.749 275.945C141.868 274.906 143.306 273.627 145.464 273.148C148.34 272.509 150.817 273.787 152.176 274.586C154.732 275.945 156.091 277.622 157.609 279.54C158.168 280.259 159.686 282.177 162.403 287.93C163.282 289.848 164.56 292.884 165.839 296C180.301 294.322 194.204 290.567 207.069 284.974C206.19 282.017 204.671 276.024 204.592 271.71C204.592 269.632 204.671 267.555 204.671 267.555C204.831 265.637 204.911 264.279 205.471 262.681C205.95 261.242 206.509 259.405 208.187 257.887C210.345 255.889 213.141 255.809 214.739 255.729C217.616 255.649 219.693 256.448 221.93 257.247C222.729 257.567 225.047 258.526 230.32 262.121C231.998 263.32 234.635 265.238 237.272 267.395C248.698 258.845 258.845 248.618 267.475 237.192C265.238 234.955 261.003 230.72 258.765 227.044ZM148.5 248.378C93.3673 248.378 48.6219 203.633 48.6219 148.5C48.6219 93.3673 93.3673 48.6219 148.5 48.6219C203.633 48.6219 248.378 93.3673 248.378 148.5C248.378 203.633 203.633 248.378 148.5 248.378Z" fill="white"/>
</svg>
