<svg width="240" height="65" viewBox="0 0 240 65" fill="none" xmlns="http://www.w3.org/2000/svg">
<path d="M238.808 42.7199C238.619 45.8463 238.599 48.6736 238.238 51.435C237.463 57.3489 235.157 60.2352 230.285 60.6644C216.918 61.8419 203.546 63.2563 190.156 63.6603C169.8 64.2745 149.428 64.1483 129.062 64.2722C119.027 64.3332 108.99 64.3553 98.9567 64.1959C92.045 64.0861 85.1369 63.6375 78.2274 63.3338C76.3129 63.2497 74.2956 64.6483 72.4925 62.3382C72.1505 61.9 70.4603 63.009 69.2112 63.471C68.7011 62.731 68.1035 61.864 67.3178 60.7241C65.5442 64.5718 63.2834 63.7187 60.3457 62.8691C56.3215 61.7052 52.012 61.8719 47.8184 61.7133C38.1731 61.3484 28.5055 61.4789 18.8838 60.7205C13.3584 60.285 7.90506 58.5056 3.145 57.4865C2.33482 54.2594 1.85182 52.055 1.22652 49.9116C0.328057 46.8319 0.196653 43.3972 2.2643 41.5036C4.57911 39.3836 7.64017 38.4381 10.4122 37.0895C11.2664 36.6739 12.2377 36.6121 12.9285 36.4436C12.5231 33.3548 12.161 30.5952 11.7989 27.8356C11.9608 27.7971 12.1228 27.7586 12.2848 27.7201C12.1683 27.5385 12.0694 27.2209 11.9327 27.1948C6.09598 26.0795 3.8437 20.0428 0.895873 15.1193C-0.770541 12.336 -0.0735948 10.0431 2.66507 9.22488C6.29658 8.13988 10.0419 7.5144 13.7676 7.00897C47.897 2.37895 82.1571 2.7937 116.426 2.8367C138.422 2.8643 160.42 1.8476 182.415 1.21341C193.028 0.907415 203.635 0.314879 214.248 0.0231279C220.642 -0.152651 226.905 0.636085 232.951 3.68233C237.709 6.07957 239.923 10.4123 239.991 16.1651C240.075 23.2755 239.554 30.3976 239.258 37.5124C239.191 39.1432 238.973 40.7649 238.808 42.7199ZM211.566 28.2646C211.543 25.1066 211.549 21.9477 211.487 18.7908C211.434 16.1138 210.274 14.7054 208.037 14.6696C206.879 14.6511 205.722 14.6194 204.564 14.6193C163.559 14.6135 122.554 14.6135 81.5482 14.6063C81.3256 14.6063 81.1031 14.6062 80.8805 14.6062C65.4728 14.6035 50.065 14.6008 34.6574 14.5577C32.0741 14.5505 29.934 15.0961 29.9264 18.9741C29.9084 28.215 29.9179 37.4561 29.9499 46.6969C29.9597 49.5148 31.1297 51.0436 33.5307 51.027C34.4953 51.0203 35.4601 51.0629 36.4248 51.063C80.1318 51.0719 123.839 51.0806 167.546 51.0842C180.668 51.0852 193.789 51.0991 206.911 51.0466C210.729 51.0313 211.474 50.1212 211.54 45.4603C211.619 39.9637 211.563 34.4642 211.566 28.2646Z" fill="white"/>
<path d="M211.566 28.2646C211.543 25.1066 211.549 21.9477 211.487 18.7908C211.434 16.1138 210.274 14.7054 208.037 14.6696C206.879 14.6511 205.722 14.6194 204.564 14.6193C163.559 14.6135 122.554 14.6135 81.5482 14.6063L80.8805 14.6062C65.4728 14.6035 50.065 14.6008 34.6574 14.5577C32.0741 14.5505 29.934 15.0961 29.9264 18.9741C29.9084 28.215 29.9179 37.4561 29.9499 46.6969C29.9597 49.5148 31.1297 51.0436 33.5307 51.027C34.4953 51.0203 35.4601 51.0629 36.4248 51.063C80.1318 51.0719 123.839 51.0806 167.546 51.0842C180.668 51.0852 193.789 51.0991 206.911 51.0466C210.729 51.0313 211.474 50.1212 211.54 45.4603C211.619 39.9637 211.563 34.4642 211.566 28.2646Z" fill="white"/>
<path d="M54.8848 47.896L50.6368 38.824L36.3808 41.308L32.6368 47.896H32.0968L41.9248 19.456L47.6128 18.592L59.1328 47.428L54.8848 47.896ZM44.7688 26.296L39.1888 36.268L50.2048 37.96L44.7688 26.296ZM83.3591 47.968L68.3831 26.476L65.1791 47.968H64.6031L62.2991 19.42H68.2031L80.5151 34.324L84.3311 19.06H85.0151L83.6471 47.968H83.3591ZM92.5622 47.5L91.5542 19.42H98.3222L97.3142 47.5H92.5622ZM110.673 47.5L109.701 23.56L102.213 24.532V19.06L124.497 21.112V21.616L116.325 22.696L115.353 47.5H110.673ZM139.106 48.22C137.738 48.22 136.298 47.884 134.786 47.212C133.298 46.516 131.894 45.52 130.574 44.224C129.254 42.928 128.186 41.368 127.37 39.544C126.554 37.72 126.146 35.668 126.146 33.388C126.146 31.612 126.41 29.968 126.938 28.456C127.49 26.92 128.222 25.552 129.134 24.352C130.046 23.152 131.066 22.132 132.194 21.292C133.322 20.428 134.474 19.78 135.65 19.348C136.85 18.892 138.002 18.664 139.106 18.664C140.186 18.664 141.314 18.892 142.49 19.348C143.69 19.804 144.842 20.464 145.946 21.328C147.074 22.168 148.094 23.188 149.006 24.388C149.918 25.588 150.638 26.944 151.166 28.456C151.694 29.968 151.958 31.612 151.958 33.388C151.958 35.668 151.55 37.72 150.734 39.544C149.918 41.368 148.862 42.928 147.566 44.224C146.27 45.52 144.878 46.516 143.39 47.212C141.902 47.884 140.474 48.22 139.106 48.22ZM140.546 45.124C141.674 45.124 142.67 44.752 143.534 44.008C144.398 43.264 145.07 42.232 145.55 40.912C146.054 39.568 146.306 38.02 146.306 36.268C146.306 33.844 146.03 31.732 145.478 29.932C144.926 28.108 144.206 26.596 143.318 25.396C142.43 24.196 141.482 23.296 140.474 22.696C139.49 22.096 138.554 21.796 137.666 21.796C136.562 21.796 135.566 22.168 134.678 22.912C133.79 23.632 133.082 24.64 132.554 25.936C132.05 27.232 131.798 28.756 131.798 30.508C131.798 33.076 132.074 35.284 132.626 37.132C133.202 38.98 133.934 40.492 134.822 41.668C135.734 42.844 136.694 43.72 137.702 44.296C138.71 44.848 139.658 45.124 140.546 45.124ZM158.273 47.5L156.941 19.42H163.493L163.457 20.5C164.753 20.116 165.965 19.84 167.093 19.672C168.245 19.504 169.301 19.42 170.261 19.42C172.181 19.42 173.789 19.708 175.085 20.284C176.405 20.836 177.401 21.568 178.073 22.48C178.745 23.368 179.081 24.34 179.081 25.396C179.081 26.428 178.853 27.508 178.397 28.636C177.941 29.764 177.125 30.844 175.949 31.876C174.797 32.908 173.177 33.796 171.089 34.54C169.025 35.284 166.373 35.788 163.133 36.052L162.881 47.5H158.273ZM163.133 35.332C165.101 34.948 166.709 34.36 167.957 33.568C169.229 32.776 170.213 31.888 170.909 30.904C171.605 29.92 172.085 28.948 172.349 27.988C172.637 27.028 172.781 26.2 172.781 25.504C172.781 24.52 172.325 23.68 171.413 22.984C170.525 22.264 169.013 21.904 166.877 21.904C166.373 21.904 165.833 21.928 165.257 21.976C164.681 22 164.069 22.072 163.421 22.192L163.133 35.332ZM183.722 47.5L182.714 19.42H189.482L188.474 47.5H183.722ZM215.549 47.896L211.301 38.824L197.045 41.308L193.301 47.896H192.761L202.589 19.456L208.277 18.592L219.797 47.428L215.549 47.896ZM205.433 26.296L199.853 36.268L210.869 37.96L205.433 26.296Z" fill="#203D55"/>
</svg>
