<svg width="240" height="67" viewBox="0 0 240 67" fill="none" xmlns="http://www.w3.org/2000/svg">
<rect x="37" width="175.497" height="66.6994" rx="9.69944" fill="#752323"/>
<path d="M71.4916 15.3713V49.8497H64.9795V15.3713H71.4916ZM92.1882 15.3713L78.3589 32.1842L70.4497 40.6381L69.2893 34.3155L74.7832 27.1877L84.2079 15.3713H92.1882ZM84.942 49.8497L74.2148 33.6998L78.8798 29.4847L92.6854 49.8497H84.942ZM109.356 44.4033V32.5868C109.356 31.7185 109.206 30.9687 108.906 30.3372C108.606 29.7057 108.149 29.2163 107.533 28.869C106.917 28.5217 106.136 28.348 105.189 28.348C104.352 28.348 103.618 28.4901 102.986 28.7743C102.371 29.0585 101.897 29.461 101.566 29.982C101.234 30.4872 101.068 31.0713 101.068 31.7343H94.793C94.793 30.6766 95.0456 29.6741 95.5508 28.7269C96.0559 27.7639 96.7742 26.9114 97.7057 26.1695C98.6529 25.4117 99.7816 24.8197 101.092 24.3934C102.418 23.9672 103.902 23.7541 105.544 23.7541C107.486 23.7541 109.214 24.0856 110.73 24.7486C112.261 25.3959 113.461 26.3747 114.329 27.685C115.213 28.9953 115.655 30.645 115.655 32.6342V43.8113C115.655 45.09 115.734 46.1872 115.892 47.1028C116.066 48.0027 116.318 48.7841 116.65 49.4472V49.8497H110.28C109.98 49.2025 109.751 48.3816 109.593 47.387C109.435 46.3766 109.356 45.3821 109.356 44.4033ZM110.233 34.2444L110.28 37.9622H106.325C105.346 37.9622 104.486 38.0648 103.744 38.2701C103.002 38.4595 102.394 38.7437 101.921 39.1226C101.447 39.4857 101.092 39.9277 100.855 40.4487C100.618 40.9538 100.5 41.5301 100.5 42.1773C100.5 42.8088 100.642 43.3771 100.926 43.8823C101.226 44.3875 101.652 44.79 102.205 45.09C102.773 45.3742 103.436 45.5162 104.194 45.5162C105.299 45.5162 106.262 45.2952 107.083 44.8532C107.904 44.3954 108.543 43.8428 109.001 43.1956C109.459 42.5483 109.704 41.9326 109.735 41.3485L111.535 44.0481C111.314 44.6953 110.982 45.3821 110.54 46.1082C110.098 46.8344 109.53 47.5133 108.835 48.1448C108.141 48.7762 107.304 49.2972 106.325 49.7076C105.346 50.1181 104.21 50.3233 102.915 50.3233C101.258 50.3233 99.7737 49.9918 98.4634 49.3288C97.1531 48.6657 96.1191 47.758 95.3613 46.6055C94.6035 45.4531 94.2247 44.1428 94.2247 42.6746C94.2247 41.3169 94.4773 40.1171 94.9824 39.0752C95.4876 38.0333 96.2375 37.1571 97.2321 36.4467C98.2266 35.7205 99.458 35.1759 100.926 34.8128C102.41 34.4339 104.107 34.2444 106.017 34.2444H110.233ZM129.485 49.8497H123.186V21.8596C123.186 19.9337 123.557 18.3155 124.299 17.0052C125.041 15.6791 126.098 14.6766 127.472 13.9978C128.845 13.319 130.463 12.9795 132.326 12.9795C132.942 12.9795 133.526 13.019 134.079 13.0979C134.647 13.1769 135.207 13.2874 135.76 13.4295L135.641 18.1892C135.342 18.1103 135.01 18.055 134.647 18.0234C134.3 17.9919 133.913 17.9761 133.487 17.9761C132.634 17.9761 131.908 18.1261 131.308 18.426C130.708 18.726 130.25 19.168 129.935 19.7521C129.635 20.3204 129.485 21.0229 129.485 21.8596V49.8497ZM134.671 24.2277V28.7269H119.326V24.2277H134.671ZM152.644 44.4033V32.5868C152.644 31.7185 152.494 30.9687 152.194 30.3372C151.894 29.7057 151.436 29.2163 150.821 28.869C150.205 28.5217 149.423 28.348 148.476 28.348C147.639 28.348 146.905 28.4901 146.274 28.7743C145.658 29.0585 145.185 29.461 144.853 29.982C144.522 30.4872 144.356 31.0713 144.356 31.7343H138.081C138.081 30.6766 138.333 29.6741 138.838 28.7269C139.343 27.7639 140.062 26.9114 140.993 26.1695C141.94 25.4117 143.069 24.8197 144.379 24.3934C145.706 23.9672 147.19 23.7541 148.831 23.7541C150.773 23.7541 152.502 24.0856 154.017 24.7486C155.549 25.3959 156.748 26.3747 157.617 27.685C158.501 28.9953 158.943 30.645 158.943 32.6342V43.8113C158.943 45.09 159.022 46.1872 159.18 47.1028C159.353 48.0027 159.606 48.7841 159.937 49.4472V49.8497H153.567C153.267 49.2025 153.039 48.3816 152.881 47.387C152.723 46.3766 152.644 45.3821 152.644 44.4033ZM153.52 34.2444L153.567 37.9622H149.613C148.634 37.9622 147.774 38.0648 147.032 38.2701C146.29 38.4595 145.682 38.7437 145.208 39.1226C144.735 39.4857 144.379 39.9277 144.143 40.4487C143.906 40.9538 143.787 41.5301 143.787 42.1773C143.787 42.8088 143.93 43.3771 144.214 43.8823C144.514 44.3875 144.94 44.79 145.492 45.09C146.061 45.3742 146.724 45.5162 147.482 45.5162C148.587 45.5162 149.55 45.2952 150.371 44.8532C151.192 44.3954 151.831 43.8428 152.289 43.1956C152.747 42.5483 152.991 41.9326 153.023 41.3485L154.822 44.0481C154.601 44.6953 154.27 45.3821 153.828 46.1082C153.386 46.8344 152.818 47.5133 152.123 48.1448C151.428 48.7762 150.592 49.2972 149.613 49.7076C148.634 50.1181 147.497 50.3233 146.203 50.3233C144.545 50.3233 143.061 49.9918 141.751 49.3288C140.441 48.6657 139.407 47.758 138.649 46.6055C137.891 45.4531 137.512 44.1428 137.512 42.6746C137.512 41.3169 137.765 40.1171 138.27 39.0752C138.775 38.0333 139.525 37.1571 140.52 36.4467C141.514 35.7205 142.746 35.1759 144.214 34.8128C145.698 34.4339 147.395 34.2444 149.305 34.2444H153.52ZM178.692 44.4033V32.5868C178.692 31.7185 178.542 30.9687 178.242 30.3372C177.942 29.7057 177.485 29.2163 176.869 28.869C176.253 28.5217 175.472 28.348 174.524 28.348C173.688 28.348 172.954 28.4901 172.322 28.7743C171.707 29.0585 171.233 29.461 170.901 29.982C170.57 30.4872 170.404 31.0713 170.404 31.7343H164.129C164.129 30.6766 164.381 29.6741 164.887 28.7269C165.392 27.7639 166.11 26.9114 167.042 26.1695C167.989 25.4117 169.117 24.8197 170.428 24.3934C171.754 23.9672 173.238 23.7541 174.88 23.7541C176.821 23.7541 178.55 24.0856 180.066 24.7486C181.597 25.3959 182.797 26.3747 183.665 27.685C184.549 28.9953 184.991 30.645 184.991 32.6342V43.8113C184.991 45.09 185.07 46.1872 185.228 47.1028C185.402 48.0027 185.654 48.7841 185.986 49.4472V49.8497H179.616C179.316 49.2025 179.087 48.3816 178.929 47.387C178.771 46.3766 178.692 45.3821 178.692 44.4033ZM179.568 34.2444L179.616 37.9622H175.661C174.682 37.9622 173.822 38.0648 173.08 38.2701C172.338 38.4595 171.73 38.7437 171.257 39.1226C170.783 39.4857 170.428 39.9277 170.191 40.4487C169.954 40.9538 169.836 41.5301 169.836 42.1773C169.836 42.8088 169.978 43.3771 170.262 43.8823C170.562 44.3875 170.988 44.79 171.541 45.09C172.109 45.3742 172.772 45.5162 173.53 45.5162C174.635 45.5162 175.598 45.2952 176.419 44.8532C177.24 44.3954 177.879 43.8428 178.337 43.1956C178.795 42.5483 179.04 41.9326 179.071 41.3485L180.871 44.0481C180.65 44.6953 180.318 45.3821 179.876 46.1082C179.434 46.8344 178.866 47.5133 178.171 48.1448C177.477 48.7762 176.64 49.2972 175.661 49.7076C174.682 50.1181 173.546 50.3233 172.251 50.3233C170.594 50.3233 169.11 49.9918 167.799 49.3288C166.489 48.6657 165.455 47.758 164.697 46.6055C163.939 45.4531 163.561 44.1428 163.561 42.6746C163.561 41.3169 163.813 40.1171 164.318 39.0752C164.823 38.0333 165.573 37.1571 166.568 36.4467C167.562 35.7205 168.794 35.1759 170.262 34.8128C171.746 34.4339 173.443 34.2444 175.353 34.2444H179.568Z" fill="white"/>
</svg>
