<svg width="481" height="512" viewBox="0 0 481 512" fill="none" xmlns="http://www.w3.org/2000/svg">
<g clip-path="url(#clip0_10_1039)">
<path d="M122.146 262.435L130.959 253.614V223.959L139.581 215.329V200.577C141.252 200.273 142.519 198.828 142.519 197.067C142.519 195.09 140.923 193.493 138.948 193.493C136.973 193.493 135.377 195.09 135.377 197.067C135.377 198.816 136.644 200.273 138.315 200.577V214.797L130.325 222.793L123.779 216.241V200.577C125.451 200.273 126.717 198.828 126.717 197.067C126.717 195.09 125.122 193.493 123.146 193.493C121.171 193.493 119.576 195.09 119.576 197.067C119.576 198.816 120.842 200.273 122.513 200.577V216.774L129.692 223.959V253.095L121.779 261.015L96.2026 235.416V198.689L105.851 189.032V149.277C107.522 148.972 108.788 147.528 108.788 145.766C108.788 143.789 107.193 142.192 105.218 142.192C103.242 142.192 101.647 143.789 101.647 145.766C101.647 147.515 102.913 148.972 104.585 149.277V188.5L95.5695 197.523L82.3382 184.28V168.21L94.7212 155.816V116.859L114.726 96.8352C115.296 97.2281 115.993 97.4689 116.74 97.4689C118.702 97.4689 120.285 95.8847 120.285 93.9204C120.285 91.9561 118.702 90.3719 116.74 90.3719C114.777 90.3719 113.194 91.9561 113.194 93.9204C113.194 94.6681 113.435 95.3651 113.827 95.9354L93.455 116.326V155.284L82.3382 166.411V114.755C84.3513 114.451 85.9087 112.715 85.9087 110.611C85.9087 108.292 84.0221 106.403 81.7051 106.403C79.388 106.403 77.5014 108.292 77.5014 110.611C77.5014 112.715 79.0588 114.438 81.072 114.755V152.153L66.4099 137.478V102.107C68.0686 101.803 69.3221 100.371 69.3221 98.6221C69.3221 96.6578 67.7394 95.0737 65.7768 95.0737C63.8143 95.0737 62.2316 96.6578 62.2316 98.6221C62.2316 100.371 63.4851 101.803 65.1437 102.107V137.997L81.072 153.94V184.787L94.9364 198.664V234.123L84.0348 223.211V204.329L64.1941 184.47V157.717C65.8528 157.413 67.1063 155.981 67.1063 154.232C67.1063 152.267 65.5236 150.683 63.5611 150.683C61.5985 150.683 60.0158 152.267 60.0158 154.232C60.0158 155.981 61.2693 157.413 62.928 157.717V183.202L51.1654 171.429V157.514L41.4286 147.768V123.132C43.0873 122.828 44.3408 121.396 44.3408 119.647C44.3408 117.682 42.7581 116.098 40.7956 116.098C38.833 116.098 37.2503 117.682 37.2503 119.647C37.2503 121.396 38.5038 122.828 40.1625 123.132V148.288L49.8992 158.034V170.162L17.7895 138.023C18.1947 137.44 18.4226 136.743 18.4226 135.995C18.4226 134.018 16.8272 132.421 14.852 132.421C12.8768 132.421 11.2815 134.018 11.2815 135.995C11.2815 137.972 12.8768 139.569 14.852 139.569C15.6117 139.569 16.3081 139.328 16.8779 138.923L41.8591 163.927H21.3727L12.0538 154.599C12.4463 154.029 12.6869 153.332 12.6869 152.584C12.6869 150.62 11.1042 149.036 9.14167 149.036C7.17913 149.036 5.59644 150.62 5.59644 152.584C5.59644 154.549 7.17913 156.133 9.14167 156.133C9.8887 156.133 10.5851 155.892 11.1549 155.499L20.2079 164.56L11.2182 173.558C10.6484 173.165 9.95201 172.925 9.20498 172.925C7.24244 172.925 5.65974 174.509 5.65974 176.473C5.65974 178.437 7.24244 180.022 9.20498 180.022C11.1675 180.022 12.7502 178.437 12.7502 176.473C12.7502 175.725 12.5096 175.028 12.1171 174.458L21.3727 165.194H43.1253L82.756 204.861V221.957L68.0306 207.218C68.4231 206.648 68.6637 205.951 68.6637 205.203C68.6637 203.239 67.081 201.655 65.1184 201.655C63.1559 201.655 61.5732 203.239 61.5732 205.203C61.5732 207.167 63.1559 208.751 65.1184 208.751C65.8655 208.751 66.5618 208.511 67.1316 208.118L82.9459 223.947L120.867 261.902V284.562L207.65 371.423V539H208.916V370.891L122.133 284.03V262.422L122.146 262.435ZM78.7803 110.649C78.7803 109.027 80.0971 107.709 81.7177 107.709C83.3384 107.709 84.6552 109.027 84.6552 110.649C84.6552 112.271 83.3384 113.589 81.7177 113.589C80.0971 113.589 78.7803 112.271 78.7803 110.649Z" fill="white"/>
<path d="M97.0889 277.769L57.7621 238.407V217.952L46.6579 206.838V200.818C48.6711 200.514 50.2285 198.778 50.2285 196.674C50.2285 194.355 48.3419 192.467 46.0248 192.467C43.7078 192.467 41.8212 194.355 41.8212 196.674C41.8212 198.778 43.3786 200.501 45.3917 200.818V207.37L56.4959 218.484V238.039H44.7967L33.1354 226.367C33.5405 225.784 33.7684 225.087 33.7684 224.339C33.7684 222.362 32.1731 220.766 30.1979 220.766C28.2227 220.766 26.6273 222.362 26.6273 224.339C26.6273 226.316 28.2227 227.913 30.1979 227.913C30.9576 227.913 31.654 227.672 32.2237 227.28L44.2522 239.319H56.8378L81.6291 264.133H66.0807L57.2556 255.3C57.6481 254.729 57.8887 254.032 57.8887 253.285C57.8887 251.32 56.306 249.736 54.3435 249.736C52.3809 249.736 50.7982 251.32 50.7982 253.285C50.7982 255.249 52.3809 256.833 54.3435 256.833C55.0905 256.833 55.7869 256.592 56.3567 256.2L65.549 265.4H82.8826L96.5191 279.049H111.574L205.573 373.134V539.025H206.839V372.615L112.106 277.795H97.0509L97.0889 277.769ZM43.1 196.687C43.1 195.064 44.4168 193.747 46.0375 193.747C47.6582 193.747 48.975 195.064 48.975 196.687C48.975 198.309 47.6582 199.627 46.0375 199.627C44.4168 199.627 43.1 198.309 43.1 196.687Z" fill="white"/>
<path d="M121.197 316.891L99.7858 295.461H48.3799C48.076 293.788 46.6326 292.521 44.8726 292.521C42.8974 292.521 41.3021 294.118 41.3021 296.095C41.3021 298.072 42.8974 299.668 44.8726 299.668C46.6199 299.668 48.076 298.401 48.3799 296.728H97.9879L91.062 303.66H31.0969C30.793 301.988 29.3496 300.72 27.5896 300.72C25.6144 300.72 24.019 302.317 24.019 304.294C24.019 306.271 25.6144 307.868 27.5896 307.868C29.3369 307.868 30.793 306.601 31.0969 304.928H91.5938L99.5199 296.994L111.65 309.135H41.568L35.2245 315.484C34.6421 315.079 33.9457 314.851 33.1987 314.851C31.2235 314.851 29.6281 316.448 29.6281 318.425C29.6281 320.402 31.2235 321.998 33.1987 321.998C35.1739 321.998 36.7692 320.402 36.7692 318.425C36.7692 317.664 36.5287 316.967 36.1235 316.397L42.0871 310.428H112.903L120.652 318.184H146.975L203.573 374.833V539.025H204.839V374.3L147.507 316.916H121.184L121.197 316.891Z" fill="white"/>
<path d="M142.784 340.501L130.211 327.917H89.34C89.0361 326.257 87.6053 325.002 85.858 325.002C83.8955 325.002 82.3128 326.586 82.3128 328.55C82.3128 330.515 83.8955 332.099 85.858 332.099C87.5927 332.099 89.0361 330.844 89.34 329.184H129.68L140.986 340.501H71.4492L57.2936 326.32C57.6987 325.737 57.9266 325.04 57.9266 324.292C57.9266 322.315 56.3313 320.718 54.3561 320.718C52.3809 320.718 50.7855 322.315 50.7855 324.292C50.7855 326.269 52.3809 327.866 54.3561 327.866C55.1158 327.866 55.8122 327.625 56.3819 327.232L70.9174 341.781H121.64L110.194 353.238H76.6784C76.3745 351.577 74.9438 350.323 73.1965 350.323C71.2339 350.323 69.6512 351.907 69.6512 353.871C69.6512 355.836 71.2339 357.42 73.1965 357.42C74.9311 357.42 76.3745 356.165 76.6784 354.505H110.725L123.438 341.781H166.854L201.559 376.518V539.025H202.826V375.986L167.386 340.514H142.797L142.784 340.501Z" fill="white"/>
<path d="M149.52 363.009L140.024 353.504C140.417 352.933 140.657 352.236 140.657 351.489C140.657 349.524 139.075 347.94 137.112 347.94C135.15 347.94 133.567 349.524 133.567 351.489C133.567 353.453 135.15 355.037 137.112 355.037C137.859 355.037 138.555 354.796 139.125 354.403L147.735 363.021H102.343L97.9879 358.662H29.9446L24.88 353.592C24.9307 353.516 25.0066 353.466 25.0573 353.39C25.855 352.148 25.9309 350.614 25.2852 349.195C24.918 348.384 24.2596 347.725 23.4493 347.357C21.4234 346.432 19.119 347.091 17.9795 348.865C17.1818 350.107 17.1058 351.641 17.7516 353.06C18.1187 353.871 18.7771 354.518 19.5875 354.898C20.2206 355.189 20.8663 355.329 21.512 355.329C22.4237 355.329 23.272 355.012 23.9811 354.492L29.4255 359.942H97.4561L101.179 363.668L90.7075 374.148H50.1778L44.4421 379.889C43.8597 379.484 43.1633 379.255 42.4163 379.255C40.4411 379.255 38.8457 380.852 38.8457 382.829C38.8457 384.806 40.4411 386.403 42.4163 386.403C44.3915 386.403 45.9868 384.806 45.9868 382.829C45.9868 382.069 45.7463 381.372 45.3411 380.802L50.6969 375.441H76.096L67.866 383.678C67.2962 383.285 66.5999 383.045 65.8528 383.045C63.8903 383.045 62.3076 384.629 62.3076 386.593C62.3076 388.557 63.8903 390.142 65.8528 390.142C67.8154 390.142 69.3981 388.557 69.3981 386.593C69.3981 385.845 69.1575 385.148 68.765 384.578L77.894 375.441H91.2393L102.343 364.327H159.308L141.67 381.98H121.716C121.412 380.32 119.981 379.065 118.234 379.065C116.271 379.065 114.688 380.649 114.688 382.614C114.688 384.578 116.271 386.162 118.234 386.162C119.968 386.162 121.412 384.908 121.716 383.247H142.189L161.093 364.327H185.619L199.508 378.229V539.051H200.774V377.709L186.138 363.059H149.52V363.009ZM20.1066 353.719C19.5748 353.478 19.1317 353.035 18.8911 352.503C18.4226 351.476 18.4733 350.399 19.0304 349.524C19.5748 348.675 20.4991 348.168 21.4994 348.168C21.9679 348.168 22.4363 348.282 22.8922 348.485C23.4239 348.726 23.8671 349.169 24.1077 349.702C24.5761 350.728 24.5255 351.806 23.9684 352.68C23.1707 353.922 21.55 354.378 20.094 353.719H20.1066Z" fill="white"/>
<path d="M345.319 292.495L383.24 254.539L403.144 234.617C403.726 235.023 404.423 235.251 405.17 235.251C407.132 235.251 408.74 233.654 408.74 231.677C408.74 229.7 407.145 228.103 405.17 228.103C403.195 228.103 401.599 229.7 401.599 231.677C401.599 232.437 401.84 233.135 402.232 233.705L383.405 252.55V225.265L395.547 213.111H427.783L431.493 209.398C432.063 209.791 432.759 210.031 433.506 210.031C435.469 210.031 437.052 208.447 437.052 206.483C437.052 204.519 435.469 202.935 433.506 202.935C431.544 202.935 429.961 204.519 429.961 206.483C429.961 207.231 430.202 207.928 430.594 208.498L427.252 211.844H396.813L419.414 189.222H437.28L445.662 180.833C446.231 181.225 446.928 181.466 447.675 181.466C449.637 181.466 451.22 179.882 451.22 177.918C451.22 175.953 449.637 174.369 447.675 174.369C445.712 174.369 444.129 175.953 444.129 177.918C444.129 178.665 444.37 179.363 444.763 179.933L436.748 187.955H420.68L444.104 164.51C444.687 164.915 445.383 165.156 446.13 165.156C448.105 165.156 449.701 163.559 449.701 161.582C449.701 159.605 448.105 158.008 446.13 158.008C444.155 158.008 442.559 159.605 442.559 161.582C442.559 162.343 442.8 163.04 443.205 163.61L418.895 187.942L404.727 202.136V187.968C406.385 187.663 407.639 186.231 407.639 184.482C407.639 182.518 406.056 180.934 404.094 180.934C402.131 180.934 400.548 182.518 400.548 184.482C400.548 186.231 401.802 187.663 403.461 187.968V203.403L382.151 224.732V237.114L370.832 225.784C371.237 225.201 371.465 224.504 371.465 223.756C371.465 221.779 369.869 220.183 367.894 220.183C365.919 220.183 364.324 221.779 364.324 223.756C364.324 225.733 365.919 227.33 367.894 227.33C368.654 227.33 369.35 227.089 369.92 226.697L382.138 238.926V253.83L344.027 291.976V314.635L257.245 401.497V539.013H258.511V402.029L345.293 315.168V292.508L345.319 292.495Z" fill="white"/>
<path d="M367.134 327.131L388.545 305.701H422.212L432.987 316.486C432.595 317.056 432.354 317.753 432.354 318.501C432.354 320.465 433.937 322.049 435.899 322.049C437.862 322.049 439.445 320.465 439.445 318.501C439.445 316.536 437.862 314.952 435.899 314.952C435.152 314.952 434.456 315.193 433.886 315.586L424.01 305.701H460.475L471.795 294.371C472.365 294.764 473.061 295.005 473.808 295.005C475.771 295.005 477.353 293.42 477.353 291.456C477.353 289.492 475.771 287.908 473.808 287.908C471.846 287.908 470.263 289.492 470.263 291.456C470.263 292.204 470.503 292.901 470.896 293.471L459.944 304.433H406.461L415.59 295.296H443.484C443.788 296.956 445.218 298.211 446.966 298.211C448.928 298.211 450.511 296.627 450.511 294.662C450.511 292.698 448.928 291.114 446.966 291.114C445.231 291.114 443.788 292.369 443.484 294.029H415.071L404.676 304.433H388.013L366.603 325.864H340.279L261.347 404.868V539H262.613V405.387L340.811 327.118H367.134V327.131Z" fill="white"/>
<path d="M371.136 345.836L387.697 329.26L399.574 341.147H424.428C424.732 342.82 426.175 344.088 427.935 344.088C429.898 344.088 431.506 342.491 431.506 340.514C431.506 338.537 429.911 336.94 427.935 336.94C426.188 336.94 424.732 338.207 424.428 339.88H400.093L389.229 329.007H455.322L465.781 339.475C465.388 340.045 465.148 340.742 465.148 341.49C465.148 343.454 466.73 345.038 468.693 345.038C470.656 345.038 472.238 343.454 472.238 341.49C472.238 339.525 470.656 337.941 468.693 337.941C467.946 337.941 467.25 338.182 466.68 338.575L456.487 328.373L467.984 316.866C468.68 317.385 469.529 317.689 470.466 317.689C472.783 317.689 474.669 315.801 474.669 313.482C474.669 311.163 472.783 309.275 470.466 309.275C468.149 309.275 466.262 311.163 466.262 313.482C466.262 314.407 466.578 315.269 467.085 315.966L455.322 327.739H387.444L370.617 344.582H325.339L263.398 406.579V539.025H264.665V407.111L325.858 345.862H371.136V345.836ZM470.453 310.542C472.074 310.542 473.39 311.86 473.39 313.482C473.39 315.104 472.074 316.422 470.453 316.422C468.832 316.422 467.515 315.104 467.515 313.482C467.515 311.86 468.832 310.542 470.453 310.542Z" fill="white"/>
<path d="M196.786 218.18L185.758 207.142L194.406 198.474V181.492C196.077 181.187 197.343 179.743 197.343 177.981C197.343 176.004 195.748 174.407 193.773 174.407C191.797 174.407 190.202 176.004 190.202 177.981C190.202 179.73 191.468 181.187 193.139 181.492V197.954L185.492 205.609V133.422C187.505 133.118 189.062 131.382 189.062 129.278C189.062 126.959 187.176 125.071 184.859 125.071C182.542 125.071 180.655 126.959 180.655 129.278C180.655 131.382 182.213 133.106 184.226 133.422V165.067L175.856 156.69V109.724L187.556 98.0138V60.6915C189.214 60.3874 190.468 58.9553 190.468 57.2064C190.468 55.2421 188.885 53.6579 186.923 53.6579C184.96 53.6579 183.377 55.2421 183.377 57.2064C183.377 58.9553 184.631 60.3874 186.29 60.6915V97.4942L175.856 107.937V81.8049C177.528 81.5008 178.794 80.056 178.794 78.2945C178.794 76.3175 177.199 74.7207 175.223 74.7207C173.248 74.7207 171.653 76.3175 171.653 78.2945C171.653 80.0434 172.919 81.5008 174.59 81.8049V157.223L184.226 166.867V207.395L195.52 218.7V267.136L219.463 291.101V539H220.729V290.582L196.786 266.617V218.18ZM181.934 129.291C181.934 127.669 183.251 126.351 184.871 126.351C186.492 126.351 187.809 127.669 187.809 129.291C187.809 130.913 186.492 132.231 184.871 132.231C183.251 132.231 181.934 130.913 181.934 129.291Z" fill="white"/>
<path d="M214.309 217.002L234.327 196.965V176.549L225.11 167.323V147.515C226.781 147.211 228.047 145.766 228.047 144.005C228.047 142.028 226.452 140.431 224.477 140.431C222.502 140.431 220.906 142.028 220.906 144.005C220.906 145.753 222.172 147.211 223.844 147.515V167.843L233.061 177.069V196.446L213.676 215.848L207.51 209.677V156.171L213.55 150.126V128.645L235.594 106.581C236.29 107.088 237.138 107.405 238.075 107.405C240.392 107.405 242.279 105.516 242.279 103.197C242.279 100.878 240.392 98.9897 238.075 98.9897C235.758 98.9897 233.872 100.878 233.872 103.197C233.872 104.122 234.188 104.984 234.695 105.681L212.284 128.112V149.593L206.877 155.005L198.293 146.412V106.72L219.387 85.6069C219.957 85.9997 220.653 86.2405 221.4 86.2405C223.363 86.2405 224.945 84.6564 224.945 82.692C224.945 80.7277 223.363 79.1436 221.4 79.1436C219.437 79.1436 217.855 80.7277 217.855 82.692C217.855 83.4397 218.095 84.1368 218.488 84.7071L198.293 104.921V75.7472L210.081 63.9485V20.391C211.739 20.0869 212.993 18.6548 212.993 16.9059C212.993 14.9416 211.41 13.3575 209.447 13.3575C207.485 13.3575 205.902 14.9416 205.902 16.9059C205.902 18.6548 207.156 20.0869 208.814 20.391V63.4162L198.293 73.9476V45.3697L187.214 34.2808C187.606 33.7105 187.847 33.0134 187.847 32.2657C187.847 30.3014 186.264 28.7173 184.302 28.7173C182.339 28.7173 180.756 30.3014 180.756 32.2657C180.756 34.2301 182.339 35.8142 184.302 35.8142C185.049 35.8142 185.745 35.5734 186.315 35.1806L197.026 45.902V106.201L196.9 106.327L197.026 106.454V146.945L206.244 156.171V210.209L213.043 217.014V270.761L221.501 279.227V539.013H222.767V278.707L214.309 270.241V217.014V217.002ZM238.075 100.257C239.696 100.257 241.013 101.575 241.013 103.197C241.013 104.819 239.696 106.137 238.075 106.137C236.455 106.137 235.138 104.819 235.138 103.197C235.138 101.575 236.455 100.257 238.075 100.257Z" fill="white"/>
<path d="M233.492 297.894L238.253 293.129C238.835 293.535 239.532 293.775 240.279 293.775C242.241 293.775 243.849 292.179 243.849 290.202C243.849 288.225 242.254 286.628 240.279 286.628C238.303 286.628 236.708 288.225 236.708 290.202C236.708 290.962 236.949 291.659 237.341 292.229L233.479 296.095V274.094L242.216 265.35V226.316L232.985 217.078C233.391 216.495 233.619 215.798 233.619 215.05C233.619 213.073 232.023 211.476 230.048 211.476C228.073 211.476 226.477 213.073 226.477 215.05C226.477 217.027 228.073 218.624 230.048 218.624C230.808 218.624 231.504 218.383 232.074 217.977L240.937 226.849V264.83L233.467 272.307V242.665L223.451 232.64C223.856 232.057 224.084 231.36 224.084 230.613C224.084 228.636 222.489 227.039 220.514 227.039C218.539 227.039 216.943 228.636 216.943 230.613C216.943 232.59 218.539 234.186 220.514 234.186C221.274 234.186 221.97 233.946 222.54 233.54L232.188 243.197V272.32L221.945 262.067C222.35 261.484 222.59 260.787 222.59 260.04C222.59 258.063 220.995 256.466 219.02 256.466C217.045 256.466 215.449 258.063 215.449 260.04C215.449 262.017 217.045 263.613 219.02 263.613C219.779 263.613 220.476 263.373 221.046 262.98L232.188 274.132V319.324L223.502 328.018V539.038H224.768V328.55L233.454 319.857V297.932L233.492 297.894Z" fill="white"/>
<path d="M234.783 333.924L243.545 325.154V302.228L253.143 292.622V225.163L260.36 217.939V198.702L272.591 186.459V133.422L264.589 125.413V117.987C266.26 117.682 267.526 116.238 267.526 114.476C267.526 112.499 265.931 110.902 263.956 110.902C261.98 110.902 260.385 112.499 260.385 114.476C260.385 116.225 261.651 117.682 263.322 117.987V125.945L271.325 133.955V185.94L260.36 196.915V187.942L248.205 175.776V172.899L258.486 162.609V143.536C260.157 143.231 261.423 141.787 261.423 140.025C261.423 138.048 259.828 136.451 257.853 136.451C255.877 136.451 254.282 138.048 254.282 140.025C254.282 141.774 255.548 143.231 257.22 143.536V162.076L248.205 171.1V118.582C249.876 118.278 251.142 116.833 251.142 115.072C251.142 113.095 249.547 111.498 247.571 111.498C245.596 111.498 244.001 113.095 244.001 115.072C244.001 116.821 245.267 118.278 246.938 118.582V176.296L259.094 188.462V217.42L251.876 224.644V292.103L242.279 301.709V324.634L233.517 333.404V348.954L225.578 356.9V539.013H226.845V357.42L234.783 349.474V333.924Z" fill="white"/>
<path d="M258.967 356.621L274.275 341.299V283.89L289.089 269.063V211.489L298.534 202.035V178.083L316.197 160.404V85.6829L328.416 73.466C328.985 73.8589 329.682 74.0997 330.429 74.0997C332.391 74.0997 333.974 72.5155 333.974 70.5512C333.974 68.5869 332.391 67.0027 330.429 67.0027C328.466 67.0027 326.884 68.5869 326.884 70.5512C326.884 71.2989 327.124 71.9959 327.517 72.5662L314.931 85.1633V118.785L298.952 102.792V29.4143C300.611 29.1101 301.864 27.6781 301.864 25.9292C301.864 23.9648 300.282 22.3807 298.319 22.3807C296.357 22.3807 294.774 23.9648 294.774 25.9292C294.774 27.6781 296.027 29.1101 297.686 29.4143V70.4498L283.986 56.7375V41.0102C285.645 40.706 286.898 39.274 286.898 37.5251C286.898 35.5607 285.316 33.9766 283.353 33.9766C281.391 33.9766 279.808 35.5607 279.808 37.5251C279.808 39.274 281.061 40.706 282.72 41.0102V57.2698L297.686 72.2494V103.324L314.931 120.585V159.897L297.268 177.576V201.528L289.089 209.715V161.62L297.483 153.218V132.447C299.497 132.143 301.054 130.406 301.054 128.303C301.054 125.983 299.167 124.095 296.85 124.095C294.533 124.095 292.647 125.983 292.647 128.303C292.647 130.406 294.204 132.13 296.217 132.447V152.686L288.456 160.454L278.972 150.962V91.6773C280.644 91.3731 281.91 89.9284 281.91 88.1668C281.91 86.1898 280.314 84.593 278.339 84.593C276.364 84.593 274.769 86.1898 274.769 88.1668C274.769 89.9157 276.035 91.3731 277.706 91.6773V151.482L287.823 161.607V268.543L273.009 283.371V340.78L257.701 356.102V384.261L244.09 397.885V539.013H245.356V398.405L258.967 384.781V356.621ZM293.913 128.303C293.913 126.68 295.23 125.362 296.85 125.362C298.471 125.362 299.788 126.68 299.788 128.303C299.788 129.925 298.471 131.243 296.85 131.243C295.23 131.243 293.913 129.925 293.913 128.303Z" fill="white"/>
<path d="M285.657 314.889L304.207 296.323V261.459L314.07 251.587V239.18C315.741 238.875 317.007 237.431 317.007 235.669C317.007 233.692 315.412 232.095 313.437 232.095C311.462 232.095 309.866 233.692 309.866 235.669C309.866 237.418 311.132 238.875 312.804 239.18V251.054L304.207 259.659V231.753L320.603 215.341V200.565C322.275 200.26 323.541 198.816 323.541 197.054C323.541 195.077 321.945 193.48 319.97 193.48C317.995 193.48 316.4 195.077 316.4 197.054C316.4 198.803 317.666 200.26 319.337 200.565V213.555L309.17 203.378V184.14C310.841 183.836 312.107 182.391 312.107 180.63C312.107 178.653 310.512 177.056 308.537 177.056C306.562 177.056 304.966 178.653 304.966 180.63C304.966 182.379 306.232 183.836 307.904 184.14V203.91L319.071 215.088L302.94 231.234V295.803L284.391 314.369V361.272L246.141 399.558V539H247.407V400.09L285.657 361.805V314.901V314.889Z" fill="white"/>
<path d="M300.294 332.821L317.552 315.548V287.375L336 268.911V186.637L351.447 171.176V145.462L359.956 136.946V66.7239C361.627 66.4198 362.893 64.975 362.893 63.2135C362.893 61.2365 361.298 59.6397 359.322 59.6397C357.347 59.6397 355.752 61.2365 355.752 63.2135C355.752 64.9624 357.018 66.4198 358.689 66.7239V109.369L337.697 88.3569C338.089 87.7866 338.33 87.0896 338.33 86.3419C338.33 84.3776 336.747 82.7934 334.784 82.7934C332.822 82.7934 331.239 84.3776 331.239 86.3419C331.239 88.3062 332.822 89.8904 334.784 89.8904C335.531 89.8904 336.228 89.6496 336.798 89.2567L358.677 111.156V136.413L350.801 144.296L333.227 126.706C333.632 126.123 333.86 125.426 333.86 124.678C333.86 122.701 332.265 121.104 330.29 121.104C328.314 121.104 326.719 122.701 326.719 124.678C326.719 126.655 328.314 128.252 330.29 128.252C331.049 128.252 331.746 128.011 332.315 127.606L350.143 145.449V170.643L335.329 185.471L325.883 176.017V157.704C327.555 157.4 328.821 155.955 328.821 154.194C328.821 152.217 327.225 150.62 325.25 150.62C323.275 150.62 321.68 152.217 321.68 154.194C321.68 155.943 322.946 157.4 324.617 157.704V176.549L334.696 186.637V268.391L316.248 286.856V315.028L298.99 332.302V350.361L248.129 401.256V539.013H249.395V401.788L300.256 350.893V332.834L300.294 332.821Z" fill="white"/>
<path d="M324.718 298.034L356.626 266.097V219.055L421.719 153.902L421.769 153.852L421.909 153.712L432.468 143.143C433.165 143.65 434.013 143.967 434.937 143.967C437.242 143.967 439.116 142.091 439.116 139.784C439.116 137.478 437.242 135.602 434.937 135.602C432.633 135.602 430.759 137.478 430.759 139.784C430.759 140.71 431.075 141.559 431.582 142.243L421.921 151.913V118.671C423.593 118.367 424.859 116.922 424.859 115.161C424.859 113.184 423.263 111.587 421.288 111.587C419.313 111.587 417.718 113.184 417.718 115.161C417.718 116.909 418.984 118.367 420.655 118.671V153.18L403.448 170.403V144.157C405.107 143.852 406.36 142.42 406.36 140.672C406.36 138.707 404.777 137.123 402.815 137.123C400.852 137.123 399.27 138.707 399.27 140.672C399.27 142.42 400.523 143.852 402.182 144.157V171.67L388.381 185.484L377.897 174.99V147.084C379.556 146.78 380.809 145.348 380.809 143.599C380.809 141.635 379.226 140.051 377.264 140.051C375.301 140.051 373.719 141.635 373.719 143.599C373.719 145.348 374.972 146.78 376.631 147.084V175.523L387.482 186.383L356.638 217.255V201.54L367.894 190.274V91.2717L374.364 84.7958C374.947 85.2013 375.643 85.4294 376.39 85.4294C378.353 85.4294 379.961 83.8326 379.961 81.8556C379.961 79.8786 378.365 78.2818 376.39 78.2818C374.415 78.2818 372.82 79.8786 372.82 81.8556C372.82 82.616 373.06 83.313 373.465 83.8833L366.628 90.7268V189.729L355.372 200.996V248.165L344.977 237.76V214.568C346.99 214.264 348.547 212.528 348.547 210.424C348.547 208.105 346.661 206.217 344.344 206.217C342.027 206.217 340.14 208.105 340.14 210.424C340.14 212.528 341.698 214.252 343.711 214.568V238.28L355.372 249.952V265.54L323.465 297.476V329.602L250.218 402.916V538.975H251.484V403.436L324.731 330.122V297.995L324.718 298.034ZM434.937 136.857C436.545 136.857 437.849 138.162 437.849 139.772C437.849 141.381 436.545 142.687 434.937 142.687C433.329 142.687 432.025 141.381 432.025 139.772C432.025 138.162 433.329 136.857 434.937 136.857ZM341.406 210.45C341.406 208.827 342.723 207.509 344.344 207.509C345.964 207.509 347.281 208.827 347.281 210.45C347.281 212.072 345.964 213.39 344.344 213.39C342.723 213.39 341.406 212.072 341.406 210.45Z" fill="white"/>
<path d="M243.229 335.584L259.157 319.641V268.949L276.009 252.081V207.18C277.681 206.876 278.947 205.431 278.947 203.67C278.947 201.693 277.351 200.096 275.376 200.096C273.401 200.096 271.806 201.693 271.806 203.67C271.806 205.418 273.072 206.876 274.743 207.18V250.294L266.019 241.562V229.371C268.033 229.066 269.59 227.33 269.59 225.226C269.59 222.907 267.703 221.019 265.386 221.019C263.069 221.019 261.183 222.907 261.183 225.226C261.183 227.33 262.74 229.054 264.753 229.371V242.082L274.477 251.815L257.891 268.416V319.109L241.962 335.052V379.446L233.732 387.683V539.013H234.999V388.215L243.229 379.978V335.584ZM262.449 225.239C262.449 223.617 263.766 222.299 265.386 222.299C267.007 222.299 268.324 223.617 268.324 225.239C268.324 226.861 267.007 228.179 265.386 228.179C263.766 228.179 262.449 226.861 262.449 225.239Z" fill="white"/>
<path d="M245.267 356.457L268.096 333.607V274.132L280.859 261.358V234.947C282.53 234.643 283.796 233.198 283.796 231.436C283.796 229.459 282.201 227.863 280.226 227.863C278.251 227.863 276.655 229.459 276.655 231.436C276.655 233.185 277.921 234.643 279.593 234.947V260.838L266.83 273.612V333.087L244.001 355.937V381.144L235.771 389.381V539.013H237.037V389.901L245.267 381.663V356.457Z" fill="white"/>
<path d="M199.85 297.767V284.068C201.521 283.764 202.788 282.319 202.788 280.557C202.788 278.58 201.192 276.983 199.217 276.983C197.242 276.983 195.646 278.58 195.646 280.557C195.646 282.306 196.913 283.764 198.584 284.068V296.234L188.049 285.69V264.691C189.721 264.386 190.987 262.942 190.987 261.18C190.987 259.216 189.392 257.606 187.416 257.606C185.441 257.606 183.846 259.203 183.846 261.18C183.846 262.929 185.112 264.386 186.783 264.691V286.222L198.584 298.034V312.937L183.175 297.514V254.552L170.26 241.626V180.389C171.931 180.098 173.21 178.64 173.21 176.879C173.21 174.902 171.615 173.305 169.64 173.305C167.664 173.305 166.069 174.902 166.069 176.879C166.069 178.627 167.323 180.072 168.981 180.376V217.585L163.993 212.591C164.398 212.008 164.626 211.311 164.626 210.564C164.626 208.587 163.03 206.99 161.055 206.99C159.08 206.99 157.484 208.587 157.484 210.564C157.484 212.541 159.08 214.138 161.055 214.138C161.815 214.138 162.511 213.897 163.081 213.491L168.969 219.384V242.145L181.883 255.072V296.234L165.968 280.304V266.465L170.26 262.169V258.316C171.931 258.012 173.197 256.567 173.197 254.806C173.197 252.829 171.602 251.232 169.627 251.232C167.652 251.232 166.056 252.829 166.056 254.806C166.056 256.554 167.323 258.012 168.994 258.316V261.636L164.702 265.933V279.037L155.851 270.178V190.832L160.435 186.244V100.396C162.106 100.092 163.372 98.6475 163.372 96.8859C163.372 94.9089 161.777 93.3121 159.802 93.3121C157.826 93.3121 156.231 94.9089 156.231 96.8859C156.231 98.6348 157.497 100.092 159.168 100.396V185.712L155.218 189.666L132.174 166.601L145.519 153.243V129.646C147.191 129.342 148.457 127.897 148.457 126.135C148.457 124.158 146.861 122.562 144.886 122.562C142.911 122.562 141.316 124.158 141.316 126.135C141.316 127.884 142.582 129.342 144.253 129.646V152.724L131.908 165.08V141.28C133.921 140.976 135.479 139.239 135.479 137.136C135.479 134.817 133.592 132.928 131.275 132.928C128.958 132.928 127.071 134.817 127.071 137.136C127.071 139.239 128.629 140.963 130.642 141.28V166.867L154.585 190.832V270.71L217.412 333.594V539.013H218.678V333.075L199.825 314.204V297.78L199.85 297.767ZM128.363 137.148C128.363 135.526 129.68 134.208 131.3 134.208C132.921 134.208 134.238 135.526 134.238 137.148C134.238 138.771 132.921 140.089 131.3 140.089C129.68 140.089 128.363 138.771 128.363 137.148Z" fill="white"/>
<path d="M145.924 274.487V252.575C147.938 252.271 149.495 250.535 149.495 248.431C149.495 246.112 147.608 244.224 145.291 244.224C142.974 244.224 141.088 246.112 141.088 248.431C141.088 250.535 142.645 252.258 144.658 252.575V273.967L138.923 279.708V235.948L150.356 224.517V200.577C152.027 200.273 153.294 198.828 153.294 197.067C153.294 195.09 151.698 193.493 149.723 193.493C147.748 193.493 146.152 195.09 146.152 197.067C146.152 198.816 147.419 200.273 149.09 200.577V223.985L137.656 235.416V281.482L212.334 356.228V539H213.601V355.709L139.189 281.229L145.924 274.487ZM142.354 248.444C142.354 246.821 143.671 245.503 145.291 245.503C146.912 245.503 148.229 246.821 148.229 248.444C148.229 250.066 146.912 251.384 145.291 251.384C143.671 251.384 142.354 250.066 142.354 248.444Z" fill="white"/>
<path d="M477.429 247.886C475.454 247.886 473.859 249.483 473.859 251.46C473.859 252.22 474.099 252.917 474.505 253.488L461.628 266.376V247.734C463.286 247.43 464.54 245.998 464.54 244.249C464.54 242.284 462.957 240.7 460.995 240.7C459.032 240.7 457.449 242.284 457.449 244.249C457.449 245.998 458.703 247.43 460.362 247.734V267.643L445.623 282.395H417.426L432.899 266.908V254.945C434.557 254.641 435.811 253.209 435.811 251.46C435.811 249.495 434.228 247.911 432.266 247.911C430.303 247.911 428.72 249.495 428.72 251.46C428.72 253.209 429.974 254.641 431.632 254.945V266.389L415.641 282.395H395.952V268.961L431.759 233.122H457.703L472.187 218.624C472.757 219.017 473.454 219.257 474.201 219.257C476.163 219.257 477.746 217.673 477.746 215.709C477.746 213.745 476.163 212.161 474.201 212.161C472.238 212.161 470.655 213.745 470.655 215.709C470.655 216.457 470.896 217.154 471.288 217.724L457.171 231.855H433.013L445.801 219.055C446.598 219.562 447.472 219.828 448.333 219.828C449.941 219.828 451.384 218.928 452.094 217.483C452.841 215.962 452.6 214.15 451.448 212.617L451.334 212.49C450.41 211.78 449.371 211.4 448.333 211.4C446.725 211.4 445.282 212.3 444.573 213.745C443.889 215.113 444.028 216.723 444.914 218.142L394.686 268.416V282.75L370.009 307.45V288.199L384.873 273.321V264.691C386.545 264.386 387.811 262.942 387.811 261.18C387.811 259.203 386.215 257.606 384.24 257.606C382.265 257.606 380.67 259.203 380.67 261.18C380.67 262.929 381.936 264.386 383.607 264.691V272.801L368.743 287.68V308.349H354.055L259.321 403.17V538.987H260.587V403.689L354.587 309.604H369.641L395.585 283.637H446.155L475.403 254.362C475.986 254.768 476.682 254.996 477.429 254.996C479.392 254.996 481 253.399 481 251.422C481 249.445 479.405 247.848 477.429 247.848V247.886ZM445.712 214.315C446.535 212.655 448.751 212.161 450.498 213.453C451.334 214.581 451.498 215.836 450.967 216.913C450.144 218.573 447.928 219.067 446.181 217.775C445.345 216.647 445.18 215.392 445.712 214.315Z" fill="white"/>
<path d="M215.525 164.573C213.55 164.573 211.955 166.17 211.955 168.147C211.955 170.124 213.55 171.721 215.525 171.721C216.285 171.721 216.981 171.48 217.551 171.074L224.3 177.829V194.596L220.438 198.461C219.741 197.941 218.893 197.637 217.956 197.637C215.639 197.637 213.753 199.525 213.753 201.845C213.753 204.164 215.639 206.052 217.956 206.052C220.273 206.052 222.16 204.164 222.16 201.845C222.16 200.919 221.843 200.058 221.337 199.361L225.566 195.128V177.309L218.45 170.187C218.855 169.604 219.083 168.907 219.083 168.159C219.083 166.182 217.488 164.586 215.513 164.586L215.525 164.573ZM217.969 204.772C216.348 204.772 215.031 203.454 215.031 201.832C215.031 200.21 216.348 198.892 217.969 198.892C219.59 198.892 220.906 200.21 220.906 201.832C220.906 203.454 219.59 204.772 217.969 204.772Z" fill="white"/>
<path d="M243.241 164.396C243.241 162.419 241.646 160.822 239.671 160.822C237.695 160.822 236.1 162.419 236.1 164.396C236.1 166.144 237.366 167.602 239.038 167.906V192.619L245.102 198.689V209.284C243.431 209.588 242.165 211.033 242.165 212.794C242.165 214.771 243.76 216.368 245.736 216.368C247.711 216.368 249.306 214.771 249.306 212.794C249.306 211.045 248.04 209.588 246.369 209.284V198.157L240.304 192.086V167.893C241.975 167.589 243.241 166.144 243.241 164.383V164.396Z" fill="white"/>
<path d="M176.895 210.12C174.92 210.12 173.324 211.717 173.324 213.694C173.324 215.671 174.92 217.268 176.895 217.268C177.654 217.268 178.351 217.027 178.921 216.621L184.226 221.931V238.166C182.554 238.47 181.288 239.915 181.288 241.676C181.288 243.653 182.884 245.25 184.859 245.25C186.834 245.25 188.429 243.653 188.429 241.676C188.429 239.927 187.163 238.47 185.492 238.166V221.412L179.807 215.722C180.212 215.139 180.44 214.442 180.44 213.694C180.44 211.717 178.845 210.12 176.869 210.12H176.895Z" fill="white"/>
<path d="M157.269 284.118C155.294 284.118 153.699 285.715 153.699 287.692C153.699 289.669 155.294 291.266 157.269 291.266C158.029 291.266 158.725 291.025 159.295 290.62L194.064 325.42C193.557 326.117 193.241 326.966 193.241 327.904C193.241 330.223 195.127 332.111 197.444 332.111C199.761 332.111 201.648 330.223 201.648 327.904C201.648 325.585 199.761 323.697 197.444 323.697C196.52 323.697 195.659 324.013 194.963 324.52L160.194 289.72C160.599 289.137 160.827 288.44 160.827 287.692C160.827 285.715 159.232 284.118 157.257 284.118H157.269ZM197.432 324.951C199.052 324.951 200.369 326.269 200.369 327.891C200.369 329.514 199.052 330.831 197.432 330.831C195.811 330.831 194.494 329.514 194.494 327.891C194.494 326.269 195.811 324.951 197.432 324.951Z" fill="white"/>
<path d="M84.7692 234.833C84.7692 232.856 83.1738 231.259 81.1986 231.259C79.2234 231.259 77.6281 232.856 77.6281 234.833C77.6281 236.582 78.8942 238.039 80.5655 238.343V249.191L98.8488 267.491C98.4437 268.062 98.2031 268.771 98.2031 269.519C98.2031 271.496 99.7984 273.093 101.774 273.093C103.749 273.093 105.344 271.496 105.344 269.519C105.344 267.542 103.749 265.945 101.774 265.945C101.014 265.945 100.318 266.186 99.7478 266.579L81.8317 248.646V238.318C83.503 238.014 84.7692 236.569 84.7692 234.807V234.833Z" fill="white"/>
<path d="M125.603 182.569C127.578 182.569 129.173 180.972 129.173 178.995C129.173 177.018 127.578 175.421 125.603 175.421C124.843 175.421 124.147 175.662 123.577 176.067L118.955 171.442V145.944C120.627 145.639 121.893 144.195 121.893 142.433C121.893 140.456 120.297 138.859 118.322 138.859C116.347 138.859 114.752 140.456 114.752 142.433C114.752 144.182 116.018 145.639 117.689 145.944V171.961L122.678 176.955C122.273 177.538 122.045 178.235 122.045 178.982C122.045 180.959 123.64 182.556 125.615 182.556L125.603 182.569Z" fill="white"/>
<path d="M119.576 242.056C121.551 242.056 123.146 240.46 123.146 238.483C123.146 236.506 121.551 234.909 119.576 234.909C118.816 234.909 118.12 235.15 117.55 235.542L107.421 225.404V206.458C109.434 206.153 110.991 204.417 110.991 202.314C110.991 199.994 109.105 198.106 106.788 198.106C104.471 198.106 102.584 199.994 102.584 202.314C102.584 204.417 104.141 206.141 106.155 206.458V225.924L116.651 236.43C116.246 237.012 116.018 237.71 116.018 238.457C116.018 240.434 117.613 242.031 119.588 242.031L119.576 242.056ZM103.85 202.339C103.85 200.717 105.167 199.399 106.788 199.399C108.408 199.399 109.725 200.717 109.725 202.339C109.725 203.961 108.408 205.279 106.788 205.279C105.167 205.279 103.85 203.961 103.85 202.339Z" fill="white"/>
<path d="M323.566 230.537C325.237 230.232 326.504 228.788 326.504 227.026C326.504 225.049 324.908 223.452 322.933 223.452C320.958 223.452 319.362 225.049 319.362 227.026C319.362 228.775 320.629 230.232 322.3 230.537V262.726L314.576 270.457C313.88 269.937 313.032 269.633 312.095 269.633C309.778 269.633 307.891 271.521 307.891 273.841C307.891 276.16 309.778 278.048 312.095 278.048C314.412 278.048 316.298 276.16 316.298 273.841C316.298 272.915 315.982 272.054 315.475 271.357L323.566 263.258V230.537ZM312.095 276.768C310.474 276.768 309.157 275.45 309.157 273.828C309.157 272.206 310.474 270.888 312.095 270.888C313.715 270.888 315.032 272.206 315.032 273.828C315.032 275.45 313.715 276.768 312.095 276.768Z" fill="white"/>
<path d="M387.165 101.017V142.42L401.321 128.252V118.24C402.992 117.936 404.258 116.491 404.258 114.73C404.258 112.753 402.663 111.156 400.688 111.156C398.713 111.156 397.117 112.753 397.117 114.73C397.117 116.479 398.383 117.936 400.055 118.24V127.72L388.431 139.354V101.005C390.445 100.701 392.002 98.9643 392.002 96.8606C392.002 94.5414 390.115 92.6531 387.798 92.6531C385.481 92.6531 383.595 94.5414 383.595 96.8606C383.595 98.9643 385.152 100.688 387.165 101.005V101.017ZM387.798 93.9458C389.419 93.9458 390.736 95.2638 390.736 96.8859C390.736 98.5081 389.419 99.8261 387.798 99.8261C386.178 99.8261 384.861 98.5081 384.861 96.8859C384.861 95.2638 386.178 93.9458 387.798 93.9458Z" fill="white"/>
<path d="M295.014 285.335C296.989 285.335 298.585 283.738 298.585 281.761C298.585 279.784 296.989 278.187 295.014 278.187C293.039 278.187 291.444 279.784 291.444 281.761C291.444 282.522 291.684 283.219 292.077 283.789L282.251 293.623C281.669 293.218 280.973 292.99 280.226 292.99C278.263 292.99 276.655 294.586 276.655 296.563C276.655 298.54 278.25 300.137 280.226 300.137C282.201 300.137 283.796 298.54 283.796 296.563C283.796 295.803 283.556 295.106 283.15 294.536L292.976 284.701C293.558 285.107 294.255 285.348 295.002 285.348L295.014 285.335Z" fill="white"/>
<path d="M313.88 38.7797V63.9485L329.239 48.576C329.821 48.9816 330.517 49.2097 331.264 49.2097C333.227 49.2097 334.835 47.6129 334.835 45.6359C334.835 43.6589 333.24 42.062 331.264 42.062C329.289 42.062 327.694 43.6589 327.694 45.6359C327.694 46.3963 327.934 47.0933 328.34 47.6636L315.134 60.8816V38.767C316.805 38.4629 318.071 37.0182 318.071 35.2566C318.071 33.2796 316.476 31.6828 314.5 31.6828C312.525 31.6828 310.93 33.2796 310.93 35.2566C310.93 37.0055 312.196 38.4629 313.867 38.767L313.88 38.7797Z" fill="white"/>
<path d="M211.853 33.9513C211.853 35.7001 213.119 37.1576 214.791 37.4617V53.5185L224.692 63.4289L239.341 48.7661L239.405 48.7028L239.519 48.5887L256.131 31.9616V7.03358C257.789 6.72942 259.043 5.29736 259.043 3.54847C259.043 1.58414 257.46 0 255.498 0C253.535 0 251.952 1.58414 251.952 3.54847C251.952 5.29736 253.206 6.72942 254.865 7.03358V31.4293L239.519 46.7891V18.5534C241.19 18.2493 242.456 16.8045 242.456 15.043C242.456 13.066 240.861 11.4692 238.886 11.4692C236.91 11.4692 235.315 13.066 235.315 15.043C235.315 16.7919 236.581 18.2493 238.253 18.5534V48.0564L224.679 61.642L216.044 52.9989V37.4617C217.716 37.1576 218.982 35.7128 218.982 33.9513C218.982 31.9743 217.386 30.3774 215.411 30.3774C213.436 30.3774 211.841 31.9743 211.841 33.9513H211.853Z" fill="white"/>
<path d="M155.446 84.7831C157.763 84.7831 159.65 82.8948 159.65 80.5756C159.65 78.4719 158.092 76.7484 156.079 76.4315V64.9117L171.058 49.9194C171.64 50.3249 172.337 50.553 173.084 50.553C175.059 50.553 176.654 48.9562 176.654 46.9792C176.654 45.0022 175.059 43.4054 173.084 43.4054C171.108 43.4054 169.513 45.0022 169.513 46.9792C169.513 47.7396 169.754 48.4366 170.159 49.0069L154.8 64.3794V76.4315C152.787 76.7357 151.23 78.4719 151.23 80.5756C151.23 82.8948 153.116 84.7831 155.433 84.7831H155.446ZM155.446 77.6481C157.067 77.6481 158.384 78.9661 158.384 80.5883C158.384 82.2105 157.067 83.5285 155.446 83.5285C153.825 83.5285 152.509 82.2105 152.509 80.5883C152.509 78.9661 153.825 77.6481 155.446 77.6481Z" fill="white"/>
<path d="M267.045 50.0588V82.1724L253.37 95.8594V59.741C255.029 59.4369 256.283 58.0048 256.283 56.2559C256.283 54.2916 254.7 52.7075 252.737 52.7075C250.775 52.7075 249.192 54.2916 249.192 56.2559C249.192 58.0048 250.446 59.4369 252.104 59.741V95.8594L238.696 82.4386V68.9671C240.354 68.6629 241.608 67.2308 241.608 65.482C241.608 63.5176 240.025 61.9335 238.063 61.9335C236.1 61.9335 234.517 63.5176 234.517 65.482C234.517 67.2308 235.771 68.6629 237.429 68.9671V82.9582L252.737 98.28L268.311 82.692V50.0588C269.97 49.7546 271.223 48.3226 271.223 46.5737C271.223 44.6093 269.641 43.0252 267.678 43.0252C265.715 43.0252 264.133 44.6093 264.133 46.5737C264.133 48.3226 265.386 49.7546 267.045 50.0588Z" fill="white"/>
<path d="M139.923 68.9671V102.082L117.373 124.653V119.609C119.031 119.305 120.285 117.873 120.285 116.124C120.285 114.159 118.702 112.575 116.74 112.575C114.777 112.575 113.194 114.159 113.194 116.124C113.194 117.873 114.448 119.305 116.106 119.609V127.707L141.189 102.601V68.9671C142.848 68.6629 144.101 67.2308 144.101 65.482C144.101 63.5176 142.519 61.9335 140.556 61.9335C138.593 61.9335 137.011 63.5176 137.011 65.482C137.011 67.2308 138.264 68.6629 139.923 68.9671Z" fill="white"/>
<path d="M17.2071 281.546L33.3506 265.388H46.7972L70.6136 289.226H108.066L119.766 300.936C119.247 301.633 118.943 302.482 118.943 303.42C118.943 305.739 120.829 307.627 123.146 307.627C125.463 307.627 127.35 305.739 127.35 303.42C127.35 301.1 125.463 299.212 123.146 299.212C122.222 299.212 121.361 299.529 120.665 300.036L108.598 287.958H71.1453L11.5727 228.331C12.0792 227.634 12.3957 226.785 12.3957 225.847C12.3957 223.528 10.5091 221.64 8.19208 221.64C5.87501 221.64 3.98844 223.528 3.98844 225.847C3.98844 228.167 5.87501 230.055 8.19208 230.055C9.11637 230.055 9.97736 229.738 10.6737 229.231L45.531 264.12H21.3854L9.0404 251.764C9.43291 251.194 9.67348 250.497 9.67348 249.749C9.67348 247.785 8.09079 246.2 6.12824 246.2C4.1657 246.2 2.58301 247.785 2.58301 249.749C2.58301 251.713 4.1657 253.297 6.12824 253.297C6.87528 253.297 7.57166 253.057 8.14143 252.664L20.8536 265.388H31.5527L16.2955 280.659C15.7257 280.266 15.0293 280.025 14.2823 280.025C12.3197 280.025 10.7371 281.609 10.7371 283.573C10.7371 285.538 12.3197 287.122 14.2823 287.122C16.2448 287.122 17.8275 285.538 17.8275 283.573C17.8275 282.826 17.587 282.129 17.1944 281.558L17.2071 281.546ZM123.146 300.479C124.767 300.479 126.084 301.797 126.084 303.42C126.084 305.042 124.767 306.36 123.146 306.36C121.526 306.36 120.209 305.042 120.209 303.42C120.209 301.797 121.526 300.479 123.146 300.479ZM8.20474 228.788C6.58406 228.788 5.26726 227.47 5.26726 225.847C5.26726 224.225 6.58406 222.907 8.20474 222.907C9.82542 222.907 11.1422 224.225 11.1422 225.847C11.1422 227.47 9.82542 228.788 8.20474 228.788Z" fill="white"/>
<path d="M474.796 366.38C473.061 366.38 471.618 367.634 471.314 369.294H451.093L439.977 358.167L444.775 353.364C445.472 353.884 446.32 354.188 447.257 354.188C449.574 354.188 451.461 352.3 451.461 349.981C451.461 347.661 449.574 345.773 447.257 345.773C444.94 345.773 443.053 347.661 443.053 349.981C443.053 350.906 443.37 351.767 443.876 352.465L438.812 357.534H399.903L395.547 361.893H370.224L378.226 353.884C378.796 354.277 379.492 354.518 380.239 354.518C382.202 354.518 383.785 352.933 383.785 350.969C383.785 349.005 382.202 347.421 380.239 347.421C378.277 347.421 376.694 349.005 376.694 350.969C376.694 351.717 376.935 352.414 377.327 352.984L368.426 361.893H311.74L265.437 408.239V538.987H266.703V408.758L312.272 363.148H346.028L360.703 377.836H382.544L394.37 389.673C393.977 390.243 393.737 390.94 393.737 391.688C393.737 393.652 395.319 395.236 397.282 395.236C399.244 395.236 400.827 393.652 400.827 391.688C400.827 389.723 399.244 388.139 397.282 388.139C396.535 388.139 395.838 388.38 395.269 388.773L383.063 376.556H361.222L347.813 363.135H395.535L406.297 373.907H433.19L439.736 380.459C439.331 381.03 439.103 381.739 439.103 382.487C439.103 384.464 440.698 386.061 442.674 386.061C444.649 386.061 446.244 384.464 446.244 382.487C446.244 380.51 444.649 378.913 442.674 378.913C441.914 378.913 441.217 379.154 440.648 379.56L433.734 372.64H406.841L396.712 362.502L400.435 358.776H438.824L450.574 370.536H471.327C471.631 372.197 473.061 373.451 474.809 373.451C476.771 373.451 478.354 371.867 478.354 369.903C478.354 367.938 476.771 366.354 474.809 366.354L474.796 366.38ZM447.244 347.053C448.865 347.053 450.182 348.371 450.182 349.993C450.182 351.615 448.865 352.933 447.244 352.933C445.624 352.933 444.307 351.615 444.307 349.993C444.307 348.371 445.624 347.053 447.244 347.053Z" fill="white"/>
<path d="M7.09051 199.741C7.09051 198.993 6.84994 198.296 6.45743 197.726L14.2316 189.945V203.657C12.573 203.961 11.3195 205.393 11.3195 207.142C11.3195 209.106 12.9022 210.69 14.8647 210.69C16.8272 210.69 18.4099 209.106 18.4099 207.142C18.4099 205.393 17.1564 203.961 15.4978 203.657V188.677L21.8159 182.353H39.9219C40.2258 184.014 41.6566 185.268 43.4039 185.268C45.3664 185.268 46.9491 183.684 46.9491 181.72C46.9491 179.755 45.3664 178.171 43.4039 178.171C41.6692 178.171 40.2258 179.426 39.9219 181.086H21.2968L5.57112 196.826C5.00135 196.433 4.30496 196.192 3.55793 196.192C1.59539 196.192 0.0126953 197.777 0.0126953 199.741C0.0126953 201.705 1.59539 203.289 3.55793 203.289C5.52047 203.289 7.10317 201.705 7.10317 199.741H7.09051Z" fill="white"/>
<path d="M41.3146 218.611C43.2772 218.611 44.8599 217.027 44.8599 215.063C44.8599 213.098 43.2772 211.514 41.3146 211.514C40.5676 211.514 39.8712 211.755 39.3015 212.148L31.1854 204.024V197.143C32.8441 196.839 34.0976 195.407 34.0976 193.658C34.0976 191.693 32.5149 190.109 30.5523 190.109C28.5898 190.109 27.0071 191.693 27.0071 193.658C27.0071 195.407 28.2606 196.839 29.9192 197.143V204.544L38.4025 213.035C38.01 213.605 37.7694 214.302 37.7694 215.05C37.7694 217.014 39.3521 218.598 41.3146 218.598V218.611Z" fill="white"/>
</g>
<defs>
<clipPath id="clip0_10_1039">
<rect width="481" height="539" fill="white"/>
</clipPath>
</defs>
</svg>
